<svg width="150" height="99" viewBox="0 0 150 99" fill="none" xmlns="http://www.w3.org/2000/svg">
<path d="M139.728 0H10.2724C4.59913 0 0 4.6315 0 10.3447V88.6553C0 94.3685 4.59913 99 10.2724 99H139.728C145.401 99 150 94.3685 150 88.6553V10.3447C150 4.6315 145.401 0 139.728 0Z" fill="#999999"/>
<path d="M139.492 0.177734H10.5073C4.85366 0.177734 0.270508 4.79314 0.270508 10.4865V88.5117C0.270508 94.2051 4.85366 98.8205 10.5073 98.8205H139.492C145.146 98.8205 149.729 94.2051 149.729 88.5117V10.4865C149.729 4.79314 145.146 0.177734 139.492 0.177734Z" fill="#B2B2B2"/>
<path fill-rule="evenodd" clip-rule="evenodd" d="M0.270508 16.2656V88.5224C0.278264 91.2538 1.35933 93.8712 3.27748 95.8024C5.19563 97.7337 7.79489 98.8218 10.5073 98.8291H139.492C142.206 98.8235 144.807 97.7361 146.727 95.8048C148.647 93.8734 149.729 91.2551 149.737 88.5224V16.2656H0.270508Z" fill="white"/>
<path d="M117.445 24.1309H61.918V28.0392H117.445V24.1309Z" fill="#999999"/>
<path d="M59.3274 24.1309H41.2803V28.0392H59.3274V24.1309Z" fill="#999999"/>
<path d="M55.0688 35.0127H9.75586V37.2195H55.0688V35.0127Z" fill="#CCCCCC"/>
<path fill-rule="evenodd" clip-rule="evenodd" d="M87.2507 55.6024L57.4178 55.5918L57.3926 58.5616L87.2234 58.5722L87.2507 55.6024Z" fill="#CCCCCC"/>
<path fill-rule="evenodd" clip-rule="evenodd" d="M111.74 55.6024L87.8325 55.5918L87.8115 58.5722L111.719 58.5807L111.74 55.6024Z" fill="#CCCCCC"/>
<path fill-rule="evenodd" clip-rule="evenodd" d="M78.3718 48.828L57.4281 48.8174L57.4092 51.7851L78.3529 51.7957L78.3718 48.828Z" fill="#CCCCCC"/>
<path fill-rule="evenodd" clip-rule="evenodd" d="M111.729 48.828L78.7501 48.8174L78.7207 51.7957L111.7 51.8062L111.729 48.828Z" fill="#CCCCCC"/>
<path d="M55.0688 39.3711H9.75586V41.5779H55.0688V39.3711Z" fill="#CCCCCC"/>
<path fill-rule="evenodd" clip-rule="evenodd" d="M79.5426 62.5203L57.52 62.5098L57.499 65.488L79.5237 65.4986L79.5426 62.5203Z" fill="#CCCCCC"/>
<path fill-rule="evenodd" clip-rule="evenodd" d="M111.755 62.529L80.2636 62.5205L80.2363 65.4882L111.727 65.4988L111.755 62.529Z" fill="#CCCCCC"/>
<path fill-rule="evenodd" clip-rule="evenodd" d="M97.8439 75.6727L57.5455 75.6621L57.5098 78.6298L97.8103 78.6383L97.8439 75.6727Z" fill="#CCCCCC"/>
<path fill-rule="evenodd" clip-rule="evenodd" d="M112.072 75.6688L98.8503 75.6582L98.8398 78.6386L112.059 78.6471L112.072 75.6688Z" fill="#CCCCCC"/>
<path fill-rule="evenodd" clip-rule="evenodd" d="M72.5645 68.9823L57.5399 68.9717L57.5273 71.95L72.5519 71.9605L72.5645 68.9823Z" fill="#CCCCCC"/>
<path fill-rule="evenodd" clip-rule="evenodd" d="M111.774 68.8944L73.2572 68.8838L73.2236 71.8621L111.74 71.8726L111.774 68.8944Z" fill="#CCCCCC"/>
<path fill-rule="evenodd" clip-rule="evenodd" d="M79.2368 82.4979L57.6361 82.4873L57.6172 85.4571L79.2179 85.4656L79.2368 82.4979Z" fill="#CCCCCC"/>
<path fill-rule="evenodd" clip-rule="evenodd" d="M105.696 82.4979L79.7614 82.4873L79.7383 85.4656L105.673 85.4762L105.696 82.4979Z" fill="#CCCCCC"/>
<path d="M99.4691 34.4668H94.8682V37.7727H99.4691V34.4668Z" fill="#F7C7B4"/>
<path d="M92.1375 34.4668H85.3809V37.7727H92.1375V34.4668Z" fill="#F7C7B4"/>
<path d="M111.715 34.4668H94.8682V37.7727H111.715V34.4668Z" fill="#CCCCCC"/>
<path d="M92.1374 34.4668H68.9961V37.7727H92.1374V34.4668Z" fill="#CCCCCC"/>
<path d="M53.3077 5.00391H51.8027V12.5099H53.3077V5.00391Z" fill="white"/>
<path fill-rule="evenodd" clip-rule="evenodd" d="M54.7373 5.00089V12.509H57.5688C58.0185 12.5226 58.4676 12.4692 58.9017 12.3504C59.2933 12.2356 59.6527 12.03 59.9512 11.7501C60.3189 11.3789 60.5931 10.9244 60.7509 10.4248C60.9141 9.90847 60.9914 9.36852 60.9797 8.82679C60.9939 8.2256 60.9117 7.62604 60.7362 7.05123C60.5886 6.59943 60.3451 6.18541 60.0226 5.83794C59.7175 5.50866 59.3294 5.26903 58.8996 5.14462C58.4358 5.03368 57.9593 4.98534 57.4828 5.00089H54.7373ZM57.3652 11.2428H56.2423V6.27337H56.9182C57.3309 6.25799 57.7441 6.28205 58.1524 6.34524C58.4136 6.39455 58.6558 6.51687 58.8513 6.69824C59.0498 6.90114 59.1942 7.15125 59.2711 7.42537C59.3882 7.85974 59.4398 8.30934 59.4244 8.75915C59.4378 9.22281 59.3862 9.68606 59.2711 10.1352C59.2051 10.4071 59.0698 10.657 58.8786 10.8602C58.7047 11.0134 58.4954 11.1202 58.2699 11.1709C57.972 11.2289 57.6685 11.253 57.3652 11.2428V11.2428Z" fill="white"/>
<path fill-rule="evenodd" clip-rule="evenodd" d="M64.8906 8.83301C64.8906 10.0125 65.2118 10.9468 65.8478 11.6253C66.4236 12.1974 67.1779 12.5519 67.9833 12.629C68.7886 12.706 69.5957 12.5008 70.2682 12.048C70.7888 11.6506 71.161 11.0419 71.3849 10.2217L69.9261 9.75672C69.8462 10.2159 69.6261 10.6385 69.2964 10.9658C69.0124 11.2198 68.6435 11.3565 68.2637 11.3484C68.0124 11.3559 67.7627 11.3053 67.5339 11.2005C67.305 11.0957 67.103 10.9395 66.9434 10.7438C66.6034 10.3422 66.4341 9.66653 66.4355 8.71675C66.4355 7.82263 66.6055 7.17582 66.9497 6.77632C67.1145 6.5796 67.3213 6.42287 67.5546 6.31783C67.788 6.21279 68.0418 6.16215 68.2973 6.16967C68.6667 6.15548 69.0288 6.27591 69.3172 6.50886C69.6056 6.74182 69.8009 7.07168 69.8673 7.43793L71.3597 7.07859C71.2387 6.55462 70.9782 6.07376 70.6062 5.68774C70.0011 5.13132 69.202 4.83874 68.3833 4.87394C67.9146 4.85674 67.4475 4.9402 67.0132 5.11878C66.579 5.29736 66.1874 5.56696 65.8646 5.90968C65.2167 6.60299 64.892 7.57744 64.8906 8.83301Z" fill="white"/>
<path fill-rule="evenodd" clip-rule="evenodd" d="M74.823 5.00098L71.918 12.509H73.5153L74.1303 10.8032H77.113L77.7637 12.509H79.4009L76.414 5.00098H74.823ZM76.6281 9.53922H74.5942L75.5996 6.75328L76.6281 9.53922Z" fill="white"/>
<path fill-rule="evenodd" clip-rule="evenodd" d="M80.2002 5.00142V12.5095H81.7073V9.37478H82.0116C82.267 9.36409 82.5225 9.3926 82.7694 9.45933C82.9431 9.5257 83.0985 9.63297 83.2227 9.77217C83.5098 10.1229 83.7748 10.4915 84.0162 10.8756L85.1034 12.5095H86.9044L85.9913 11.0447C85.7424 10.6144 85.4566 10.207 85.137 9.82713C84.9002 9.57674 84.6279 9.36304 84.3289 9.193C84.8839 9.1429 85.4039 8.89829 85.7982 8.5018C86.1327 8.11595 86.309 7.61649 86.2915 7.10461C86.2991 6.68663 86.1861 6.27541 85.9661 5.9209C85.7657 5.58994 85.4603 5.33674 85.0992 5.20222C84.5357 5.03827 83.9495 4.9669 83.3634 4.99085L80.2002 5.00142ZM82.8197 8.17205H81.7073V6.26967H82.8806C83.4914 6.26967 83.8566 6.26967 83.9784 6.29292C84.1969 6.32029 84.3986 6.42521 84.5472 6.58885C84.6893 6.75959 84.764 6.97705 84.7571 7.19972C84.7636 7.39909 84.7102 7.59578 84.6039 7.7641C84.5023 7.91331 84.3548 8.02473 84.1841 8.08116C83.7346 8.16689 83.2766 8.19881 82.8197 8.17628V8.17205Z" fill="white"/>
<path fill-rule="evenodd" clip-rule="evenodd" d="M87.7129 5.00084V12.5089H90.5822C91.0381 12.5228 91.4935 12.4694 91.9339 12.3504C92.3329 12.2369 92.7002 12.0314 93.0065 11.7501C93.3782 11.3801 93.6561 10.9255 93.8167 10.4247C93.9807 9.90855 94.0587 9.36859 94.0476 8.82675C94.0623 8.22538 93.9794 7.62563 93.802 7.05119C93.6516 6.59833 93.4044 6.18419 93.0779 5.83789C92.7672 5.50834 92.3743 5.26889 91.9402 5.14458C91.4692 5.03375 90.9859 4.98543 90.5024 5.00084H87.7129ZM90.3765 11.2428H89.2388V6.27333H89.9168C90.3379 6.25745 90.7596 6.28151 91.1762 6.3452C91.4401 6.39409 91.6851 6.51637 91.8836 6.69819C92.0867 6.89968 92.2355 7.14991 92.316 7.42532C92.4349 7.85935 92.4873 8.30914 92.4713 8.75911C92.4852 9.22292 92.4329 9.68634 92.316 10.1352C92.2497 10.4084 92.112 10.6587 91.9172 10.8602C91.7403 11.0138 91.5282 11.1206 91.3001 11.1709C90.9958 11.2294 90.686 11.2535 90.3765 11.2428Z" fill="white"/>
<path d="M146.419 77.4688H137.893V78.3798H146.419V77.4688Z" fill="#7F7F7F"/>
<path d="M146.419 76.207H137.893V77.1181H146.419V76.207Z" fill="#7F7F7F"/>
<path d="M146.419 74.9453H137.893V75.8563H146.419V74.9453Z" fill="#7F7F7F"/>
<path d="M146.417 73.6836H137.893V74.5946H146.417V73.6836Z" fill="#7F7F7F"/>
<path d="M146.417 71.1406H137.893V72.0516H146.417V71.1406Z" fill="#7F7F7F"/>
<path d="M146.417 69.8809H137.893V70.7919H146.417V69.8809Z" fill="#7F7F7F"/>
<path d="M146.415 66.2109H137.891V67.122H146.415V66.2109Z" fill="#7F7F7F"/>
<path d="M146.415 63.6904H137.891V64.6015H146.415V63.6904Z" fill="#7F7F7F"/>
<path d="M146.415 62.4062H137.891V63.3173H146.415V62.4062Z" fill="#7F7F7F"/>
<path d="M146.415 61.1455H137.891V62.0565H146.415V61.1455Z" fill="#7F7F7F"/>
<path d="M146.415 59.8848H137.891V60.7958H146.415V59.8848Z" fill="#7F7F7F"/>
<path d="M146.413 57.2676H137.889V58.1786H146.413V57.2676Z" fill="#7F7F7F"/>
<path d="M146.413 56.0059H137.889V56.9169H146.413V56.0059Z" fill="#7F7F7F"/>
<path d="M146.413 54.7461H137.889V55.6571H146.413V54.7461Z" fill="#7F7F7F"/>
<path d="M146.413 52.2012H137.889V53.1122H146.413V52.2012Z" fill="#7F7F7F"/>
<path d="M146.413 50.9395H137.889V51.8505H146.413V50.9395Z" fill="#7F7F7F"/>
<path d="M146.411 48.418H137.887V49.329H146.411V48.418Z" fill="#7F7F7F"/>
<path d="M146.411 47.2744H137.887V48.1854H146.411V47.2744Z" fill="#7F7F7F"/>
<path d="M146.411 46.0127H137.887V46.9237H146.411V46.0127Z" fill="#7F7F7F"/>
<path d="M146.411 44.75H137.887V45.661H146.411V44.75Z" fill="#7F7F7F"/>
<path d="M146.411 43.4883H137.887V44.3993H146.411V43.4883Z" fill="#7F7F7F"/>
<path d="M146.411 42.208H137.887V43.119H146.411V42.208Z" fill="#7F7F7F"/>
<path d="M146.411 40.9453H137.887V41.8563H146.411V40.9453Z" fill="#7F7F7F"/>
<path d="M146.409 38.4219H137.885V39.3329H146.409V38.4219Z" fill="#7F7F7F"/>
<path d="M146.409 35.8311H137.885V36.7421H146.409V35.8311Z" fill="#7F7F7F"/>
<path d="M146.409 34.5703H137.885V35.4813H146.409V34.5703Z" fill="#7F7F7F"/>
<path d="M146.409 33.3086H137.885V34.2196H146.409V33.3086Z" fill="#7F7F7F"/>
<path d="M146.409 32.0254H137.885V32.9364H146.409V32.0254Z" fill="#7F7F7F"/>
<path d="M146.409 30.7637H137.885V31.6747H146.409V30.7637Z" fill="#7F7F7F"/>
<path d="M146.409 29.5039H137.885V30.4149H146.409V29.5039Z" fill="#7F7F7F"/>
<path d="M146.406 28.2422H137.882V29.1532H146.406V28.2422Z" fill="#7F7F7F"/>
<path d="M146.404 25.8369H137.882V26.7479H146.404V25.8369Z" fill="#7F7F7F"/>
<path d="M146.406 24.5742H137.882V25.4853H146.406V24.5742Z" fill="#7F7F7F"/>
<path d="M146.404 22.0322H137.882V22.9433H146.404V22.0322Z" fill="#7F7F7F"/>
<path d="M114.735 84.3092C114.683 84.3092 114.641 84.2923 114.639 84.2522C114.637 84.212 114.681 84.1761 114.731 84.1676C115.835 84.0112 116.484 83.821 116.755 83.6688C116.838 83.6244 116.874 83.5927 116.87 83.5779C116.866 83.5631 116.797 83.5356 116.683 83.5272C116.316 83.4976 115.543 83.6075 114.465 83.9647C112.972 84.4614 112.137 84.825 111.797 85.0765C111.658 85.178 111.616 85.2499 111.652 85.2879C111.776 85.372 111.923 85.4142 112.072 85.4084C112.883 85.4427 113.696 85.396 114.498 85.2689C114.729 85.1674 114.97 85.0882 115.216 85.0321C115.732 84.9045 116.258 84.821 116.788 84.7827V84.7827C116.868 84.772 116.949 84.772 117.03 84.7827C117.176 84.8292 117.166 84.8926 116.946 84.9666C116.6 85.0598 116.25 85.1339 115.896 85.1886C115.428 85.2689 114.975 85.3386 114.548 85.3999L114.532 85.4126C114.532 85.4126 114.546 85.4253 114.586 85.4338C114.785 85.4658 114.987 85.4772 115.189 85.4676C116.11 85.4342 117.028 85.3211 117.93 85.1294C118.692 84.7722 119.474 84.4596 120.272 84.193V84.193C120.445 84.1328 120.62 84.082 120.797 84.0408C121.146 83.9753 121.2 84.0239 120.85 84.2247C120.696 84.3135 120.319 84.4868 119.628 84.7743C119.091 84.9845 118.537 85.1479 117.972 85.2625C117.763 85.3602 117.56 85.4733 117.367 85.6008V85.6008C117.242 85.6895 117.193 85.7318 117.202 85.7424C117.365 85.8861 119.301 85.3788 120.182 85.1526L120.535 85.0617C120.639 84.9634 120.753 84.8763 120.875 84.8017C121.312 84.5431 121.775 84.3306 122.256 84.1676C122.583 84.0482 122.918 83.9535 123.259 83.8844C123.517 83.8506 123.536 83.9161 123.375 84.0514C123.264 84.1332 123.146 84.204 123.022 84.2627C122.252 84.6413 121.452 84.9524 120.629 85.1928C120.605 85.2152 120.586 85.2424 120.573 85.2726C120.56 85.3028 120.554 85.3353 120.554 85.3682C120.581 85.5373 121.311 85.4316 122.292 85.2097C123.858 84.8567 126.034 84.1866 127.157 83.8421C127.663 83.6857 127.978 83.5906 127.997 83.6561C128.016 83.7216 127.984 83.7343 127.936 83.7533C127.925 83.7553 127.913 83.7553 127.902 83.7533C127.841 83.7844 127.778 83.8112 127.713 83.8337C126.502 84.2818 124.775 85.2414 122.928 86.2645L121.798 86.8986C122.774 86.757 123.799 86.5837 124.737 86.423C125.577 86.2814 126.364 86.1482 127 86.0573C127.052 86.0573 127.094 86.0763 127.094 86.1144C127.094 86.1524 127.054 86.1926 127.002 86.1989C126.372 86.2877 125.589 86.4103 124.745 86.5646C123.683 86.7443 122.525 86.9409 121.444 87.0888C118.612 88.6361 115.747 90.065 114.171 89.8769C113.826 89.8627 113.49 89.7585 113.197 89.5746C113.133 89.5311 113.085 89.4671 113.062 89.3931C113.039 89.319 113.041 89.2392 113.069 89.1667C113.153 88.9807 113.288 88.8225 113.457 88.7101C113.925 88.3486 114.786 87.9555 115.896 87.6173C116.358 87.491 116.827 87.3936 117.3 87.3256C117.763 87.2476 118.231 87.2003 118.7 87.184C119.603 87.1664 120.503 87.0894 121.395 86.9536L122.871 86.1546C124.267 85.3809 125.6 84.6432 126.695 84.1317C125.499 84.4974 123.694 85.0364 122.336 85.3429C121.248 85.5881 120.447 85.6768 120.392 85.4042C120.385 85.3505 120.395 85.2959 120.419 85.2478L120.226 85.2985C119.322 85.5352 117.288 86.0615 117.065 85.8586C116.983 85.7868 117.034 85.6747 117.275 85.512C117.34 85.4676 117.418 85.419 117.506 85.3682C116.735 85.5104 115.955 85.5959 115.172 85.624C114.953 85.6335 114.733 85.6207 114.517 85.586C114.378 85.5542 114.307 85.5056 114.326 85.4422C113.567 85.5553 112.8 85.595 112.034 85.5606C111.842 85.5667 111.654 85.5046 111.503 85.3851C111.421 85.2773 111.476 85.1442 111.696 84.9814C112.055 84.7172 112.913 84.3473 114.435 83.8358C115.548 83.4659 116.358 83.3538 116.744 83.3834C116.927 83.3982 117.036 83.4468 117.061 83.5166C117.086 83.5863 117.025 83.6878 116.851 83.7808C116.555 83.9436 115.875 84.1465 114.74 84.3092H114.735ZM115.302 85.1548L115.879 85.0575C116.106 85.0195 116.299 84.9856 116.44 84.9561C116.057 84.9982 115.677 85.0646 115.302 85.1548V85.1548ZM118.66 84.9582C118.97 84.8748 119.274 84.7725 119.571 84.6517C119.901 84.5143 120.159 84.4044 120.352 84.3177H120.329C119.882 84.4657 119.248 84.7003 118.667 84.9518L118.66 84.9582ZM120.919 84.9582C121.618 84.7325 122.3 84.4577 122.961 84.1359L123.121 84.0514C122.955 84.0915 122.701 84.1697 122.325 84.2923C121.863 84.45 121.419 84.6554 120.999 84.9053L120.919 84.9582ZM127.846 83.7089C127.846 83.7089 127.827 83.7089 127.804 83.7089C127.835 83.7195 127.852 83.7301 127.846 83.7089ZM114.265 89.7289C115.72 89.9022 118.392 88.5981 121.089 87.1332C120.297 87.2455 119.5 87.3083 118.7 87.3214C118.244 87.3374 117.79 87.384 117.34 87.4609C116.879 87.5263 116.423 87.6202 115.974 87.742C114.891 88.0738 114.059 88.4522 113.612 88.7989C113.471 88.8929 113.358 89.0236 113.285 89.1772C113.266 89.2288 113.265 89.2854 113.282 89.3376C113.299 89.3898 113.334 89.4346 113.379 89.4647C113.647 89.6273 113.952 89.7182 114.265 89.7289Z" fill="#231F20"/>
<path fill-rule="evenodd" clip-rule="evenodd" d="M20.2115 53.1059C20.2619 52.9326 20.3165 52.7635 20.3752 52.5965C20.434 52.4295 20.4949 52.2689 20.5621 52.1082C20.6292 51.9476 20.6985 51.7933 20.772 51.6411C20.8454 51.4889 20.9231 51.3388 21.0028 51.1929C21.0826 51.0471 21.1666 50.9034 21.2526 50.7702C21.3387 50.637 21.4289 50.4933 21.5234 50.3622C21.6178 50.2312 21.7123 50.1001 21.811 49.9733C21.9096 49.8465 22.0104 49.7239 22.1153 49.6034C22.2203 49.4829 22.3252 49.3688 22.4364 49.2546C22.5477 49.1405 22.6589 49.0327 22.7744 48.927C22.8898 48.8213 23.0074 48.7156 23.127 48.6184C23.2467 48.5212 23.3684 48.4218 23.4922 48.3288C23.6161 48.2358 23.742 48.147 23.8701 48.0604C23.9981 47.9737 24.1282 47.8913 24.2605 47.8109C24.3927 47.7306 24.527 47.6545 24.6635 47.5805C24.7999 47.5066 24.9363 47.4389 25.0833 47.3692C25.2302 47.2994 25.3624 47.2402 25.5031 47.181C25.6437 47.1218 25.7885 47.0648 25.9229 47.0119C26.0572 46.9591 26.2125 46.9084 26.3595 46.8619C26.5064 46.8154 26.6533 46.7731 26.8023 46.7329C26.9514 46.6928 27.1004 46.6568 27.2515 46.623C27.4027 46.5892 27.5517 46.5596 27.7028 46.5321C27.8539 46.5046 28.0072 46.4835 28.1604 46.4624C28.3136 46.4412 28.4668 46.4264 28.6201 46.4137C28.7733 46.4011 28.9265 46.3905 29.0797 46.3841C29.3883 46.3693 29.6969 46.3693 30.0033 46.3841C30.1586 46.3841 30.3119 46.4011 30.4651 46.4137C30.6183 46.4264 30.7715 46.4433 30.9248 46.4624C31.078 46.4814 31.2291 46.5067 31.3802 46.5321C31.5314 46.5575 31.6825 46.5892 31.8336 46.623C31.9847 46.6568 32.1338 46.6928 32.2828 46.7329C32.4318 46.7731 32.5788 46.8154 32.7236 46.8619C32.8684 46.9084 33.0175 46.9591 33.1602 47.0119C33.3029 47.0648 33.4477 47.1218 33.5905 47.181C33.7332 47.2402 33.8717 47.3036 34.0103 47.3692C34.1488 47.4347 34.2873 47.5066 34.4301 47.5805C34.5728 47.6545 34.7008 47.7306 34.831 47.8109C34.9611 47.8913 35.0933 47.9737 35.2214 48.0604C35.3494 48.147 35.4775 48.2358 35.6013 48.3288C35.7251 48.4218 35.8469 48.519 35.9665 48.6184C36.0862 48.7177 36.2037 48.8298 36.3192 48.927C36.4346 49.0242 36.5458 49.1384 36.655 49.2546C36.7641 49.3709 36.8649 49.485 36.9782 49.6034C37.0916 49.7218 37.1881 49.8465 37.2826 49.9733C37.3771 50.1001 37.4778 50.2291 37.5702 50.3622C37.6625 50.4954 37.7528 50.6307 37.8388 50.7702C37.9249 50.9097 38.0109 51.0513 38.0907 51.1929C38.1705 51.3346 38.246 51.4868 38.3195 51.6411C38.393 51.7954 38.4622 51.9497 38.5294 52.1082C38.5966 52.2667 38.6574 52.4316 38.7162 52.5965C38.775 52.7614 38.8296 52.9326 38.8799 53.1059C38.9303 53.2792 38.9786 53.4547 39.0206 53.6343C39.0625 53.814 39.1024 53.9958 39.136 54.1818C39.1696 54.3678 39.2011 54.5559 39.2263 54.7483C39.2514 54.9406 39.2724 55.1372 39.2892 55.338C39.306 55.5388 39.3165 55.7396 39.3249 55.9447C39.3333 56.1497 39.3249 56.3674 39.3249 56.5788V56.7712V56.8219V56.8768V56.9318V56.9889V57.0481V57.1072V57.1685V57.232V57.2975V57.3609V57.4285V57.4962V57.5638V57.6336L39.3144 57.7054V57.7773L39.3039 57.8492V57.921L39.2934 57.995L39.2829 58.069L39.2703 58.143L39.2577 58.2191L39.1213 58.2952L39.1087 58.3713L39.0961 58.4474L39.0835 58.5235L39.0709 58.5996L39.0583 58.6756L39.0436 58.7539L39.0311 58.83L39.0185 58.9061L39.0038 58.9821L38.9912 59.0604L38.9765 59.1343L38.9618 59.2104L38.9492 59.2865C38.8967 59.5655 40.0784 58.2677 40.0323 60.0031C39.9751 60.9679 39.8225 61.9245 39.5768 62.8588C39.3165 63.8882 38.9282 64.6195 37.8451 64.7612C37.2154 66.9489 36.6487 69.1113 35.8574 70.9249C35.574 72.3284 35.2949 73.7827 35.4061 74.7677C37.7024 77.6974 37.8871 78.1074 41.0104 79.3736C42.3223 79.9041 42.7945 80.5869 42.7861 81.2971C45.815 82.5949 48.1721 83.5208 50.0088 84.9835C50.183 85.123 50.3509 85.2667 50.5167 85.4062C51.3256 86.1414 52.0116 87.0028 52.5485 87.9575H6.51562C7.05327 87.0027 7.74002 86.1413 8.54954 85.4062C8.71326 85.2583 8.88328 85.1145 9.0575 84.9835C10.892 83.5208 13.2555 82.5949 16.2801 81.2971C16.2801 80.5869 16.744 79.9041 18.0559 79.3736C21.1792 78.1053 21.3639 77.6974 23.6602 74.7677C23.7756 73.5185 23.402 72.1509 23.2089 70.9249C22.4155 69.1113 21.8508 66.9489 21.219 64.7612C20.1381 64.628 19.7497 63.8966 19.4895 62.8588C19.2441 61.9243 19.0908 60.9678 19.0319 60.0031C18.7107 57.7181 20.0814 59.0604 20.0625 58.9821L20.0478 58.9061L20.0352 58.83L20.0205 58.7539L20.0079 58.6756L19.9953 58.5996L19.9827 58.5235L19.9701 58.4474L19.9575 58.3713L19.945 58.2952L19.9324 58.2191L19.9219 58.143L19.9093 58.069L19.8988 57.995L19.8862 57.921L19.8757 57.8492L19.8652 57.7773V57.7054L19.8547 57.6336V57.5638V57.4962V57.4285V57.363V57.2975V57.232V57.1685V57.1072V57.0481V56.9889V56.9318V56.8768V56.8219V56.7712V56.7204V56.5788C19.8547 56.3674 19.8547 56.1561 19.8547 55.9447C19.8547 55.7333 19.8736 55.5367 19.8904 55.338C19.9072 55.1393 19.9282 54.9428 19.9533 54.7504C19.9785 54.5581 20.01 54.3678 20.0436 54.1818C20.0772 53.9958 20.115 53.8119 20.159 53.6343C20.2031 53.4568 20.1486 53.2835 20.201 53.1122L20.2115 53.1059Z" fill="#999999"/>
</svg>
