<?xml version="1.0" encoding="UTF-8"?>
<svg width="240px" height="211px" viewBox="0 0 240 211" version="1.1" xmlns="http://www.w3.org/2000/svg" xmlns:xlink="http://www.w3.org/1999/xlink">
    <!-- Generator: Sketch 53.2 (72643) - https://sketchapp.com -->
    <title>Group</title>
    <desc>Created with Sketch.</desc>
    <g id="Page-1" stroke="none" stroke-width="1" fill="none" fill-rule="evenodd">
        <g id="Profil-pesanan" transform="translate(-755.000000, -337.000000)">
            <g id="Group" transform="translate(755.000000, 337.000000)">
                <path d="M238.04913,207 L234.950034,207 C233.873432,207 233,207.895429 233,209 C233,210.104857 233.873432,211 234.950034,211 L238.04913,211 C239.124895,211 240,210.104857 240,209 C240,207.895429 239.124895,207 238.04913,207" id="Fill-3" fill="#00B4AB"></path>
                <path d="M227.055556,207 L220.944444,207 C219.870556,207 219,207.895429 219,209 C219,210.104857 219.870556,211 220.944444,211 L227.055556,211 C228.129444,211 229,210.104857 229,209 C229,207.895429 228.129444,207 227.055556,207" id="Fill-4" fill="#00B4AB"></path>
                <path d="M213.07578,207 L31.9242199,207 C30.8615007,207 30,207.895429 30,209 C30,210.104857 30.8615007,211 31.9242199,211 L213.07578,211 C214.138499,211 215,210.104857 215,209 C215,207.895429 214.138499,207 213.07578,207" id="Fill-5" fill="#00B4AB"></path>
                <path d="M21.0180399,207 L10.9819601,207 C9.88706872,207 9,207.895429 9,209 C9,210.104857 9.88706872,211 10.9819601,211 L21.0180399,211 C22.1126481,211 23,210.104857 23,209 C23,207.895429 22.1126481,207 21.0180399,207" id="Fill-6" fill="#00B4AB"></path>
                <path d="M18.3255329,101.109106 C17.4070882,100.879424 16.4527268,101.014515 15.6396021,101.494129 C14.8256673,101.972143 14.2491077,102.734196 14.0163234,103.640132 C13.9447598,103.918308 14.1151622,104.201013 14.3970958,104.271623 C14.6787594,104.341966 14.9655539,104.174101 15.0371176,103.895659 C15.2010387,103.258839 15.6061158,102.723271 16.1783546,102.387009 C16.7543741,102.049148 17.4211309,101.954824 18.0662836,102.11656 C19.398717,102.449891 20.2077909,103.790677 19.8696866,105.105351 C19.5315823,106.420291 18.1726838,107.218047 16.8405205,106.884716 C16.3784626,106.769076 15.9628536,106.527937 15.6382519,106.186879 C15.439224,105.977714 15.1054405,105.967322 14.8939903,106.163964 C14.682,106.360339 14.671198,106.689141 14.8704959,106.898305 C15.3328238,107.384047 15.9245063,107.72777 16.5812712,107.892171 C17.5007961,108.122385 18.4292326,107.973439 19.1961785,107.545783 C20.0106534,107.092016 20.6431136,106.323835 20.8907507,105.360878 C21.3714421,103.490919 20.2207533,101.583656 18.3255329,101.109106" id="Fill-7" fill="#00B4AB"></path>
                <path d="M2.98876491,66.8264081 C3.10450173,66.942136 3.25594459,67 3.40769527,67 C3.55913813,67 3.7108888,66.942136 3.82662563,66.8264081 C4.05779146,66.5952601 4.05779146,66.2200677 3.82662563,65.9889197 L2.01115814,64.1735919 C1.7799923,63.942136 1.40507888,63.942136 1.17360523,64.1735919 C0.942131589,64.4050477 0.942131589,64.7799323 1.17360523,65.0113881 L2.98876491,66.8264081" id="Fill-8" fill="#00B4AB"></path>
                <path d="M3,68.4998701 C3,68.2239543 2.7878589,68 2.52625103,68 L0.473502871,68 C0.212141099,68 0,68.2239543 0,68.4998701 C0,68.7760457 0.212141099,69 0.473502871,69 L2.52625103,69 C2.7878589,69 3,68.7760457 3,68.4998701" id="Fill-9" fill="#00B4AB"></path>
                <path d="M3.82662563,69.1735919 C3.59515198,68.942136 3.22023855,68.942136 2.98876491,69.1735919 L1.17360523,70.9889197 C0.942131589,71.2200677 0.942131589,71.5952601 1.17360523,71.8264081 C1.28934205,71.942136 1.44078492,72 1.59253559,72 C1.74397845,72 1.89572913,71.942136 2.01115814,71.8264081 L3.82662563,70.0113881 C4.05779146,69.7802401 4.05779146,69.4050477 3.82662563,69.1735919" id="Fill-10" fill="#00B4AB"></path>
                <path d="M5.5,70 C5.2238961,70 5,70.2121411 5,70.473749 L5,72.526251 C5,72.7878589 5.2238961,73 5.5,73 C5.7761039,73 6,72.7878589 6,72.526251 L6,70.473749 C6,70.2121411 5.7761039,70 5.5,70" id="Fill-11" fill="#00B4AB"></path>
                <path d="M6.17360523,69.1735919 C5.94213159,69.4047399 5.94213159,69.7799323 6.17360523,70.0110803 L7.98876491,71.8264081 C8.10450173,71.942136 8.25594459,72 8.40769527,72 C8.55913813,72 8.7108888,71.942136 8.82662563,71.8264081 C9.05779146,71.5952601 9.05779146,71.2200677 8.82662563,70.9886119 L7.01115814,69.1735919 C6.7799923,68.942136 6.40507888,68.942136 6.17360523,69.1735919" id="Fill-12" fill="#00B4AB"></path>
                <path d="M8,67.5 C8,67.7761039 8.211895,68 8.47350287,68 L10.526251,68 C10.7878589,68 11,67.7761039 11,67.5 C11,67.2238961 10.7878589,67 10.526251,67 L8.47350287,67 C8.211895,67 8,67.2238961 8,67.5" id="Fill-13" fill="#00B4AB"></path>
                <path d="M6.59253559,67 C6.74397845,67 6.89542132,66.942136 7.01115814,66.8264081 L8.82662563,65.0110803 C9.05779146,64.7799323 9.05779146,64.4047399 8.82662563,64.1735919 C8.59515198,63.942136 8.22023855,63.942136 7.98876491,64.1735919 L6.17360523,65.9886119 C5.94213159,66.2200677 5.94213159,66.5952601 6.17360523,66.8264081 C6.28934205,66.942136 6.44078492,67 6.59253559,67" id="Fill-14" fill="#00B4AB"></path>
                <path d="M5.4998701,66 C5.77604573,66 6,65.7878589 6,65.526251 L6,63.473749 C6,63.2121411 5.77604573,63 5.4998701,63 C5.22369447,63 5,63.2121411 5,63.473749 L5,65.526251 C5,65.7878589 5.22369447,66 5.4998701,66" id="Fill-15" fill="#00B4AB"></path>
                <path d="M54.7685928,78.2314111 C54.4600499,77.922863 53.9598405,77.922863 53.6515657,78.2314111 L51.2312061,80.6515431 C50.9229313,80.9600911 50.9229313,81.460309 51.2312061,81.7685889 C51.539749,82.077137 52.0399584,82.077137 52.3482333,81.7685889 L54.7685928,79.3484569 C55.0771357,79.0399089 55.0771357,78.539691 54.7685928,78.2314111" id="Fill-16" fill="#00B4AB"></path>
                <path d="M48.7685889,84.2312061 C48.460309,83.9229313 47.9600911,83.9229313 47.6515431,84.2312061 L45.2314111,86.6515657 C44.922863,86.9598405 44.922863,87.4600499 45.2314111,87.7685928 C45.539691,88.0771357 46.0399089,88.0771357 46.3484569,87.7685928 L48.7685889,85.3482333 C49.077137,85.0399584 49.077137,84.539749 48.7685889,84.2312061" id="Fill-17" fill="#00B4AB"></path>
                <path d="M54.7685773,86.6515431 L52.3483236,84.2314111 C52.0400281,83.922863 51.5397852,83.922863 51.2312216,84.2314111 C50.9229261,84.539691 50.9229261,85.0399089 51.2312216,85.3484569 L53.6514753,87.7685889 C53.9600389,88.077137 54.4602818,88.077137 54.7685773,87.7685889 C55.0771409,87.4600409 55.0771409,86.9598231 54.7685773,86.6515431" id="Fill-18" fill="#00B4AB"></path>
                <path d="M46.3484569,78.2312216 C46.0399089,77.9229261 45.539691,77.9229261 45.2314111,78.2312216 C44.922863,78.5397852 44.922863,79.0400281 45.2314111,79.3483236 L47.6515431,81.7685773 C47.9598231,82.0771409 48.4600409,82.0771409 48.7685889,81.7685773 C49.077137,81.4602818 49.077137,80.9600389 48.7685889,80.6514753 L46.3484569,78.2312216 Z" id="Fill-19" fill="#00B4AB"></path>
                <path d="M40.988793,176.173626 L39.17341,177.988508 C38.9421967,178.220009 38.9421967,178.595029 39.17341,178.826218 C39.2891726,178.941969 39.4408186,179 39.5924645,179 C39.7441105,179 39.8954444,178.941969 40.011207,178.826218 L41.82659,177.011336 C42.0578033,176.780147 42.0578033,176.404815 41.82659,176.173626 C41.5950647,175.942125 41.2203183,175.942125 40.988793,176.173626" id="Fill-20" fill="#00B4AB"></path>
                <path d="M37.9888981,180.173369 L36.1733919,181.988728 C35.9422027,182.219938 35.9422027,182.594992 36.1733919,182.826514 C36.2891425,182.942275 36.4407727,183 36.5924029,183 C36.7437211,183 36.8953513,182.942275 37.0111019,182.826514 L38.8266081,181.011467 C39.0577973,180.779945 39.0577973,180.404891 38.8266081,180.173681 C38.5951069,179.942158 38.2200874,179.942158 37.9888981,180.173369" id="Fill-21" fill="#00B4AB"></path>
                <path d="M40.011207,180.173644 C39.7799938,179.942119 39.4049353,179.942119 39.17341,180.173644 C38.9421967,180.404857 38.9421967,180.779916 39.17341,181.011129 L40.988793,182.826512 C41.1045556,182.942275 41.2562016,183 41.4075355,183 C41.5591814,183 41.7108274,182.942275 41.82659,182.826512 C42.0578033,182.595299 42.0578033,182.219928 41.82659,181.988715 L40.011207,180.173644" id="Fill-22" fill="#00B4AB"></path>
                <path d="M37.0111019,176.17324 C36.7796006,175.942357 36.4048931,175.942045 36.1733919,176.173552 C35.9422027,176.40506 35.9422027,176.780089 36.1733919,177.011284 L37.9888981,178.826526 C38.1043367,178.941967 38.2559669,179 38.4075971,179 C38.5592273,179 38.7108575,178.941967 38.8266081,178.826214 C39.0577973,178.595018 39.0577973,178.219989 38.8266081,177.988482 L37.0111019,176.17324" id="Fill-23" fill="#00B4AB"></path>
                <path d="M47.5,118.25754 C46.5310601,118.25754 45.7427414,117.469221 45.7427414,116.5 C45.7427414,115.53106 46.5310601,114.742741 47.5,114.742741 C48.4689399,114.742741 49.2572586,115.53106 49.2572586,116.5 C49.2572586,117.469221 48.4689399,118.25754 47.5,118.25754 Z M47.5,114 C46.121427,114 45,115.121427 45,116.5 C45,117.878573 46.121427,119 47.5,119 C48.878573,119 50,117.878573 50,116.5 C50,115.121427 48.878573,114 47.5,114 L47.5,114 Z" id="Fill-24" fill="#00B4AB"></path>
                <path d="M85.5001407,81.25754 C84.5311462,81.25754 83.7425018,80.4692212 83.7425018,79.5 C83.7425018,78.5310601 84.5311462,77.7427414 85.5001407,77.7427414 C86.4691351,77.7427414 87.2574982,78.5310601 87.2574982,79.5 C87.2574982,80.4692212 86.4691351,81.25754 85.5001407,81.25754 Z M85.5001407,77 C84.1214901,77 83,78.121427 83,79.5 C83,80.878573 84.1214901,82 85.5001407,82 C86.8787913,82 88,80.878573 88,79.5 C88,78.121427 86.8787913,77 85.5001407,77 L85.5001407,77 Z" id="Fill-25" fill="#00B4AB"></path>
                <path d="M11.831058,148.015358 L9.31543712,145.5 L11.8307955,142.984642 C12.0560515,142.759386 12.0560515,142.394198 11.8307955,142.168942 C11.6055395,141.943686 11.2403518,141.943686 11.0150958,142.168942 L8.49973746,144.684038 L5.98464164,142.168942 C5.75938567,141.943686 5.39419795,141.943686 5.16894198,142.168942 C4.94368601,142.394198 4.94368601,142.759386 5.16894198,142.984642 L7.68403781,145.5 L5.16894198,148.015096 C4.94368601,148.240352 4.94368601,148.60554 5.16894198,148.830795 C5.39419795,149.056051 5.75938567,149.056051 5.98464164,148.830795 L8.49973746,146.3157 L11.0150958,148.831058 C11.2403518,149.056314 11.605802,149.056314 11.831058,148.831058 C12.056314,148.605802 12.056314,148.240614 11.831058,148.015358" id="Fill-26" fill="#00B4AB"></path>
                <path d="M114.448862,90.9488458 L111.051269,90.9488458 L111.051269,87.5508919 C111.051269,87.2465897 110.804424,87 110.500131,87 C110.195838,87 109.949255,87.2465897 109.949255,87.5508919 L109.949255,90.9488458 L106.551138,90.9488458 C106.246845,90.9488458 106,91.1954355 106,91.4997377 C106,91.8040399 106.246845,92.0508919 106.551138,92.0508919 L109.949255,92.0508919 L109.949255,95.4488458 C109.949255,95.753148 110.195838,96 110.500131,96 C110.804424,96 111.051269,95.753148 111.051269,95.4488458 L111.051269,92.0508919 L114.448862,92.0508919 C114.753155,92.0508919 115,91.8040399 115,91.4997377 C115,91.1954355 114.753155,90.9488458 114.448862,90.9488458" id="Fill-27" fill="#00B4AB"></path>
                <path d="M110.000136,204.183102 C106.590782,204.183102 103.81695,201.40958 103.81695,198.000273 C103.81695,194.590692 106.590782,191.816898 110.000136,191.816898 C113.409218,191.816898 116.18305,194.590692 116.18305,198.000273 C116.18305,201.40958 113.409218,204.183102 110.000136,204.183102 Z M110.000136,188 C104.486007,188 100,192.485946 100,198.000273 C100,203.514054 104.486007,208 110.000136,208 C115.513993,208 120,203.514054 120,198.000273 C120,192.485946 115.513993,188 110.000136,188 L110.000136,188 Z" id="Fill-28" fill="#00B4AB"></path>
                <path d="M168.000136,204.183102 C164.590602,204.183102 161.816846,201.40958 161.816846,198.000273 C161.816846,194.590692 164.590602,191.816898 168.000136,191.816898 C171.409398,191.816898 174.183154,194.590692 174.183154,198.000273 C174.183154,201.40958 171.409398,204.183102 168.000136,204.183102 Z M168.000136,188 C162.485884,188 158,192.485946 158,198.000273 C158,203.514054 162.485884,208 168.000136,208 C173.513843,208 178,203.514054 178,198.000273 C178,192.485946 173.513843,188 168.000136,188 L168.000136,188 Z" id="Fill-29" fill="#00B4AB"></path>
                <path d="M173.308793,167.763316 L160.167945,167.763316 C159.121147,167.763316 158.339823,166.8051 158.55643,165.786553 L162.457834,147.428402 C162.618711,146.671112 163.291045,146.129215 164.069349,146.129215 L178.95541,146.129215 C180.062606,146.129215 180.854637,147.193353 180.530687,148.246297 L174.883795,166.604449 C174.672129,167.292944 174.03274,167.763316 173.308793,167.763316 Z M102.663214,166.604449 L97.0163226,148.246297 C96.6926469,147.193353 97.4844032,146.129215 98.5915991,146.129215 L113.47766,146.129215 C114.256239,146.129215 114.928298,146.671112 115.089175,147.428402 L118.990579,165.786553 C119.207186,166.8051 118.425863,167.763316 117.379064,167.763316 L104.238491,167.763316 C103.51427,167.763316 102.875154,167.292944 102.663214,166.604449 Z M110.046259,123.698785 L113.580885,140.33051 C113.797218,141.349058 113.015894,142.307273 111.969096,142.307273 L96.4082296,142.307273 C95.6840087,142.307273 95.0448934,141.836901 94.8332276,141.148406 L89.7172851,124.51668 C89.3933349,123.464008 90.1853657,122.399598 91.2925616,122.399598 L108.434744,122.399598 C109.213323,122.399598 109.885382,122.941494 110.046259,123.698785 Z M181.13878,142.307273 L165.577914,142.307273 C164.531115,142.307273 163.749791,141.349058 163.966124,140.33051 L167.50075,123.698785 C167.661627,122.941494 168.333687,122.399598 169.112265,122.399598 L186.254448,122.399598 C187.361644,122.399598 188.153674,123.464008 187.829724,124.51668 L182.714056,141.148406 C182.502116,141.836901 181.863001,142.307273 181.13878,142.307273 Z M135.620206,142.307273 L119.264564,142.307273 C118.48626,142.307273 117.813926,141.765376 117.653049,141.007813 L114.118697,124.376088 C113.90209,123.357813 114.683414,122.399598 115.730212,122.399598 L135.620206,122.399598 C136.530012,122.399598 137.267411,123.132864 137.267411,124.037573 L137.267411,140.669298 C137.267411,141.573733 136.530012,142.307273 135.620206,142.307273 Z M142.758092,122.399598 L161.816797,122.399598 C162.863595,122.399598 163.644919,123.357813 163.428312,124.376088 L159.89396,141.007813 C159.733083,141.765376 159.060749,142.307273 158.282445,142.307273 L142.758092,142.307273 C141.848286,142.307273 141.110888,141.573733 141.110888,140.669298 L141.110888,124.037573 C141.110888,123.132864 141.848286,122.399598 142.758092,122.399598 Z M123.062743,166.463856 L119.161614,148.105705 C118.945006,147.08743 119.72633,146.129215 120.773129,146.129215 L135.620206,146.129215 C136.530012,146.129215 137.267411,146.862482 137.267411,147.76719 L137.267411,166.125341 C137.267411,167.030049 136.530012,167.763316 135.620206,167.763316 L124.674533,167.763316 C123.895954,167.763316 123.223895,167.221419 123.062743,166.463856 Z M141.110888,166.125341 L141.110888,147.76719 C141.110888,146.862482 141.848286,146.129215 142.758092,146.129215 L156.77388,146.129215 C157.820679,146.129215 158.602003,147.08743 158.38567,148.105705 L154.484266,166.463856 C154.323115,167.221419 153.651055,167.763316 152.872477,167.763316 L142.758092,167.763316 C141.848286,167.763316 141.110888,167.030049 141.110888,166.125341 Z M192.916017,121.047449 C193.160627,120.251666 192.864405,119.361973 192.112181,118.875494 C191.793447,118.669383 191.412668,118.577656 191.032439,118.577656 L166.234325,118.577656 C166.229932,118.577656 166.225814,118.577656 166.221422,118.577656 L111.327235,118.577656 C111.321744,118.577656 111.316254,118.577656 111.310763,118.577656 L88.9897698,118.577656 C88.2921787,118.577656 87.670359,118.140863 87.4372796,117.487038 L83.2012188,105.607624 C82.2183868,102.851458 79.5820361,101 76.6415016,101 L64.0022273,101 C62.9499382,101 62.0324453,101.80643 62.0008739,102.852277 C61.9684788,103.934432 62.8409481,104.821942 63.9217888,104.821942 L76.6415016,104.821942 C77.958167,104.821942 79.138389,105.65103 79.5784672,106.884971 L84.6436209,121.088672 L99.7468385,170.189703 C99.7553491,170.219459 99.7644087,170.248943 99.7740174,170.278154 L103.886538,183.648125 C104.133619,184.451551 104.879528,185 105.724269,185 L172.573316,185 C173.625606,185 174.543373,184.193843 174.57467,183.147723 C174.607339,182.065568 173.73487,181.178058 172.654029,181.178058 L108.365012,181.178058 C107.640791,181.178058 107.001401,180.707959 106.789736,180.019191 L104.846584,173.70234 C104.522633,172.649668 105.314664,171.585258 106.42186,171.585258 L121.776002,171.585258 C121.7771,171.585258 121.777924,171.585531 121.779022,171.585531 C121.780669,171.585531 121.782591,171.585258 121.784238,171.585258 L155.762771,171.585258 C155.764419,171.585258 155.76634,171.585531 155.767988,171.585531 C155.769086,171.585531 155.769909,171.585258 155.771007,171.585258 L175.949262,171.585258 C176.794003,171.585258 177.539912,171.036536 177.786993,170.233382 L185.612038,144.793173 C185.613685,144.788259 185.615332,144.783072 185.616705,144.778158 L192.916017,121.047449 L192.916017,121.047449 Z" id="Fill-30" fill="#00B4AB"></path>
                <path d="M110,196 C108.8955,196 108,196.8955 108,198 C108,199.10475 108.8955,200 110,200 C111.10475,200 112,199.10475 112,198 C112,196.8955 111.10475,196 110,196" id="Fill-31" fill="#00B4AB"></path>
                <path d="M168,196 C166.8955,196 166,196.8955 166,198 C166,199.10475 166.8955,200 168,200 C169.10475,200 170,199.10475 170,198 C170,196.8955 169.10475,196 168,196" id="Fill-32" fill="#00B4AB"></path>
                <path d="M47.5905212,132 L45.0075962,132 L47.5905212,132 Z M94.2255867,132 L75.999295,132 L94.2255867,132 Z M32.4244726,156.579689 L26.0074373,156.579689 L32.4244726,156.579689 Z M78.2403422,156.579689 L61.2990959,156.579689 L78.2403422,156.579689 Z M56.0881902,188 L52.8796725,188 L56.0881902,188 Z M72.7907773,188 L63.5974868,188 L72.7907773,188 Z M95,188 L79.5718087,188 L95,188 Z" id="Stroke-33" stroke="#00B4AB" stroke-width="14" stroke-linecap="round" stroke-linejoin="round"></path>
                <path d="M98.6001196,48.9741294 C97.6647877,48.9492146 96.7621635,49.2051327 95.9942184,49.7023449 C94.4673983,45.7872049 90.6133801,43 86.1087799,43 C82.0288309,43 78.4829252,45.2872845 76.7158818,48.6274891 C75.1830149,46.4959219 72.6617691,45.1006946 69.8145451,45.1006946 C66.6341968,45.1006946 63.8595346,46.8403957 62.4162705,49.4039093 C61.3825404,48.3729251 59.9604402,47.7197247 58.392117,47.6902061 C56.8408348,47.662854 55.3651378,48.2440182 54.2393313,49.3321439 C53.1025306,50.431102 52.4505743,51.9568611 52.4505743,53.5186383 C52.4505743,55.5990219 50.7324551,57.2918724 48.6210182,57.2918724 L47.3742755,57.2918724 C46.6154006,57.2918724 46,57.8982222 46,58.6459362 C46,59.3936502 46.6154006,60 47.3742755,60 L48.6210182,60 C52.2480061,60 55.1991253,57.0925542 55.1991253,53.5186383 C55.1991253,52.6796604 55.550665,51.8582853 56.1641415,51.2652053 C56.7586531,50.6905407 57.5351188,50.3804601 58.3396196,50.3977921 C60.0046918,50.4292064 61.3591777,51.7900405 61.3591777,53.4317074 C61.3591777,54.1796922 61.9745783,54.7857712 62.7334532,54.7857712 C63.4923282,54.7857712 64.1077287,54.1796922 64.1077287,53.4317074 C64.1077287,50.331443 66.6677291,47.8088221 69.8145451,47.8088221 C72.9613612,47.8088221 75.5216364,50.331443 75.5216364,53.4317074 C75.5216364,54.1796922 76.1367621,54.7857712 76.8959119,54.7857712 C77.6547868,54.7857712 78.2701874,54.1796922 78.2701874,53.4317074 C78.2701874,49.172906 81.7866835,45.7081276 86.1087799,45.7081276 C90.4314261,45.7081276 93.9479222,49.172906 93.9479222,53.4317074 C93.9479222,54.1796922 94.5630479,54.7857712 95.3221977,54.7857712 C96.0810726,54.7857712 96.6964732,54.1796922 96.6964732,53.4317074 C96.6964732,52.9550769 96.8874975,52.5090483 97.2346395,52.1764903 C97.5815066,51.8439322 98.0427134,51.6733202 98.5250841,51.6811737 C99.4769073,51.7069009 100.251449,52.5212349 100.251449,53.4964316 L100.251449,55.5405263 C100.251449,56.5062446 99.4540944,57.2918724 98.4739611,57.2918724 L97.9044613,57.2918724 C97.1455864,57.2918724 96.5301858,57.8982222 96.5301858,58.6459362 C96.5301858,59.3936502 97.1455864,60 97.9044613,60 L98.4739611,60 C100.96992,60 103,57.9995062 103,55.5405263 L103,53.4964316 C103,51.0683245 101.02654,49.0396661 98.6001196,48.9741294" id="Fill-34" fill="#00B4AB"></path>
                <path d="M34.5,57 C34.107,57 33.72,57.159 33.4407,57.441 C33.1617,57.717 33,58.104 33,58.5 C33,58.896 33.1617,59.283 33.4407,59.562 C33.72,59.841 34.107,60 34.5,60 C34.8957,60 35.2827,59.841 35.5617,59.562 C35.8407,59.283 36,58.896 36,58.5 C36,58.104 35.8407,57.717 35.5617,57.441 C35.2827,57.159 34.8957,57 34.5,57" id="Fill-35" fill="#00B4AB"></path>
                <path d="M41.6752159,57 L39.3247841,57 C38.5932383,57 38,57.6717 38,58.5 C38,59.3283 38.5932383,60 39.3247841,60 L41.6752159,60 C42.4067617,60 43,59.3283 43,58.5 C43,57.6717 42.4067617,57 41.6752159,57" id="Fill-36" fill="#00B4AB"></path>
                <path d="M92.5385103,57 L89.4614897,57 C88.6541628,57 88,57.6717 88,58.5 C88,59.3283 88.6541628,60 89.4614897,60 L92.5385103,60 C93.3455449,60 94,59.3283 94,58.5 C94,57.6717 93.3455449,57 92.5385103,57" id="Fill-37" fill="#00B4AB"></path>
                <path d="M216.787791,59.0011125 C213.724735,58.9593366 210.835153,60.0953726 208.655516,62.191177 C207.710121,63.1005448 206.949545,64.1417089 206.390664,65.2728935 C204.912118,63.3528175 202.577544,62.0849852 199.954399,62.0362017 C197.763972,61.9938867 195.675638,62.8113475 194.082826,64.3336087 C192.470924,65.8741975 191.54628,68.0131254 191.54628,70.214313 C191.54628,73.0211169 189.202299,75.3047783 186.320464,75.3047783 L185.383369,75.3047783 C184.619196,75.3047783 184,75.9079689 184,76.6523891 C184,77.3965399 184.619196,78 185.383369,78 L186.320464,78 C190.727602,78 194.313019,74.5072622 194.313019,70.2013759 C194.313019,68.7319411 194.935258,67.2945793 196.020373,66.257458 C197.078651,65.2462108 198.453443,64.7006979 199.901278,64.7308844 C202.864178,64.7861364 205.274838,67.1808409 205.274838,70.0690406 C205.274838,70.8134608 205.894311,71.4166514 206.658207,71.4166514 C207.42238,71.4166514 208.041577,70.8134608 208.041577,70.0690406 C208.041577,67.8117924 208.950174,65.6952347 210.59915,64.1093663 C212.247849,62.5240369 214.418909,61.6648002 216.7521,61.6963343 C221.428442,61.7553596 225.233261,65.5763755 225.233261,70.214313 C225.233261,73.0211169 222.889003,75.3047783 220.007722,75.3047783 L219.453544,75.3047783 C218.689647,75.3047783 218.070175,75.9079689 218.070175,76.6523891 C218.070175,77.3965399 218.689647,78 219.453544,78 L220.007722,78 C224.414583,78 228,74.5072622 228,70.214313 C228,64.1096358 222.970069,59.0795435 216.787791,59.0011125" id="Fill-38" fill="#00B4AB"></path>
                <path d="M215.63373,75 L213.36627,75 C212.611542,75 212,75.6714 212,76.5 C212,77.3283 212.611542,78 213.36627,78 L215.63373,78 C216.388185,78 217,77.3283 217,76.5 C217,75.6714 216.388185,75 215.63373,75" id="Fill-39" fill="#00B4AB"></path>
                <path d="M180.685508,75 L175.314492,75 C174.588367,75 174,75.6714 174,76.5 C174,77.3283 174.588367,78 175.314492,78 L180.685508,78 C181.41137,78 182,77.3283 182,76.5 C182,75.6714 181.41137,75 180.685508,75" id="Fill-40" fill="#00B4AB"></path>
                <path d="M169.5,75 C169.1067,75 168.7197,75.162 168.441,75.441 C168.162,75.72 168,76.107 168,76.5 C168,76.896 168.162,77.283 168.441,77.562 C168.7197,77.841 169.1067,78 169.5,78 C169.896,78 170.2827,77.841 170.562,77.562 C170.841,77.283 171,76.896 171,76.5 C171,76.107 170.841,75.72 170.562,75.441 C170.2827,75.162 169.896,75 169.5,75" id="Fill-41" fill="#00B4AB"></path>
                <path d="M206.875588,23.6224413 C205.628432,23.5887162 204.44835,23.9870602 203.486125,24.7519581 C201.756902,19.665539 196.991859,16 191.395196,16 C186.259878,16 181.825029,19.0861295 179.79206,23.5237537 C177.997671,20.6181368 174.813522,18.6803217 171.189843,18.6803217 C167.204886,18.6803217 163.751348,21.0228389 162.093289,24.4196822 C160.854585,22.9645241 159.039746,22.0235365 157.01932,21.9842826 C155.180214,21.9535983 153.444992,22.6576803 152.115219,23.9804257 C150.770177,25.3180986 149.998816,27.1751945 149.998816,29.0756908 C149.998816,31.9210447 147.715543,34.2356418 144.909032,34.2356418 L143.363311,34.2356418 C142.610218,34.2356418 142,34.8545816 142,35.6178209 C142,36.3810602 142.610218,37 143.363311,37 L144.909032,37 C149.219002,37 152.725437,33.4450353 152.725437,29.0756908 C152.725437,27.9127253 153.198778,26.7749154 154.024672,25.953901 C154.827662,25.1552779 155.865414,24.7248674 156.967242,24.748088 C159.216159,24.7917648 161.045722,26.6834152 161.045722,28.9651164 C161.045722,29.7283557 161.655939,30.3472955 162.409032,30.3472955 C163.161852,30.3472955 163.772343,29.7283557 163.772343,28.9651164 C163.772343,24.8183027 167.099911,21.4446799 171.189843,21.4446799 C175.279775,21.4446799 178.607343,24.8183027 178.607343,28.9651164 C178.607343,29.7283557 179.217561,30.3472955 179.970654,30.3472955 C180.723474,30.3472955 181.333964,29.7283557 181.333964,28.9651164 C181.333964,23.3404768 185.84734,18.7643582 191.395196,18.7643582 C196.943053,18.7643582 201.456701,23.3404768 201.456701,28.9651164 C201.456701,29.7283557 202.066919,30.3472955 202.820012,30.3472955 C203.572832,30.3472955 204.183322,29.7283557 204.183322,28.9651164 C204.183322,28.2624166 204.456803,27.6056051 204.953866,27.1154844 C205.450383,26.6253636 206.112134,26.3649611 206.800606,26.3856938 C208.164189,26.4235655 209.273379,27.6177682 209.273379,29.0474943 L209.273379,31.6553898 C209.273379,33.078205 208.131743,34.2356418 206.728078,34.2356418 L206.022156,34.2356418 C205.269063,34.2356418 204.658845,34.8545816 204.658845,35.6178209 C204.658845,36.3810602 205.269063,37 206.022156,37 L206.728078,37 C209.635201,37 212,34.6024721 212,31.6553898 L212,29.0474943 C212,26.1346901 209.701458,23.7009491 206.875588,23.6224413" id="Fill-42" fill="#00B4AB"></path>
                <path d="M129.637138,34 L128.362862,34 C127.61029,34 127,34.6717 127,35.5 C127,36.3283 127.61029,37 128.362862,37 L129.637138,37 C130.389983,37 131,36.3283 131,35.5 C131,34.6717 130.389983,34 129.637138,34" id="Fill-43" fill="#00B4AB"></path>
                <path d="M138.710438,34 L134.289562,34 C133.577208,34 133,34.6717 133,35.5 C133,36.3283 133.577208,37 134.289562,37 L138.710438,37 C139.422534,37 140,36.3283 140,35.5 C140,34.6717 139.422534,34 138.710438,34" id="Fill-44" fill="#00B4AB"></path>
                <path d="M202.704663,34 L199.295337,34 C198.580052,34 198,34.6717 198,35.5 C198,36.3283 198.580052,37 199.295337,37 L202.704663,37 C203.419948,37 204,36.3283 204,35.5 C204,34.6717 203.419948,34 202.704663,34" id="Fill-45" fill="#00B4AB"></path>
                <path d="M111.755187,12 L111.244813,12 C110.557427,12 110,12.6717 110,13.5 C110,14.3283 110.557427,15 111.244813,15 L111.755187,15 C112.442573,15 113,14.3283 113,13.5 C113,12.6717 112.442573,12 111.755187,12" id="Fill-46" fill="#ECEFF4"></path>
                <path d="M119.289944,5.22870265 C118.213674,4.16229487 116.802212,3.58932472 115.318667,3.61928943 C113.911087,3.64645371 112.630486,4.21634337 111.660678,5.12144577 C110.156894,2.08828856 107.051734,0 103.47082,0 C99.9905459,0 96.9577477,1.97235032 95.4096038,4.86828594 C95.3300341,4.78007206 95.2482464,4.69325841 95.163409,4.60896514 C93.9224542,3.37649123 92.2783831,2.71642738 90.5381075,2.74303157 C87.0472982,2.80184082 84.2074635,5.75742583 84.2074635,9.33162818 L84.2074635,12.0368538 C84.2074635,12.1264679 84.1351022,12.1995594 84.0461061,12.1995594 L82.3862319,12.1995594 C81.6204774,12.1995594 81,12.826578 81,13.5997797 C81,14.3729813 81.6204774,15 82.3862319,15 L84.0461061,15 C85.6638388,15 86.9799274,13.6706308 86.9799274,12.0368538 L86.9799274,9.33162818 C86.9799274,7.27610477 88.5968283,5.57651737 90.5844077,5.54319213 C91.5747318,5.52554935 92.5129335,5.90360883 93.2193573,6.60567929 C93.9263356,7.3080298 94.3155896,8.2461774 94.3155896,9.24761496 C94.3155896,10.0208166 94.9363442,10.6478353 95.7018215,10.6478353 C96.467576,10.6478353 97.0880535,10.0208166 97.0880535,9.24761496 C97.0880535,5.69273566 99.9514542,2.8004406 103.47082,2.8004406 C106.990463,2.8004406 109.853586,5.69273566 109.853586,9.24761496 C109.853586,10.0208166 110.474341,10.6478353 111.239818,10.6478353 C112.005573,10.6478353 112.62605,10.0208166 112.62605,9.24761496 C112.62605,7.71717417 113.857856,6.44857458 115.371621,6.41916995 C116.106878,6.40964845 116.807757,6.69221291 117.348388,7.2279372 C117.907039,7.78130426 118.227536,8.5480649 118.227536,9.33106809 L118.227536,11.192801 C118.227536,11.7478483 117.780338,12.1995594 117.230835,12.1995594 C116.465358,12.1995594 115.844603,12.826578 115.844603,13.5997797 C115.844603,14.3729813 116.465358,15 117.230835,15 C119.309074,15 121,13.2920113 121,11.192801 L121,9.33106809 C121,7.80090734 120.376473,6.30547206 119.289944,5.22870265" id="Fill-47" fill="#00B4AB"></path>
                <path d="M77.5988118,12 L75.4011882,12 C74.6271718,12 74,12.6717 74,13.5 C74,14.3283 74.6271718,15 75.4011882,15 L77.5988118,15 C78.3728282,15 79,14.3283 79,13.5 C79,12.6717 78.3728282,12 77.5988118,12" id="Fill-48" fill="#00B4AB"></path>
                <path d="M70.5,12 C70.107,12 69.72,12.159 69.441,12.438 C69.162,12.717 69,13.104 69,13.5 C69,13.896 69.162,14.283 69.441,14.562 C69.717,14.841 70.104,15 70.5,15 C70.896,15 71.283,14.841 71.562,14.562 C71.841,14.283 72,13.896 72,13.5 C72,13.107 71.841,12.72 71.562,12.438 C71.283,12.159 70.896,12 70.5,12" id="Fill-49" fill="#00B4AB"></path>
            </g>
        </g>
    </g>
</svg>