<svg width="363" height="350" viewBox="0 0 363 350" fill="none" xmlns="http://www.w3.org/2000/svg">
<path d="M361.405 191.387C360.624 196.581 359.424 201.703 357.817 206.703C353.835 218.348 347.236 228.924 338.526 237.619C329.817 246.313 319.229 252.894 307.578 256.856C305.128 257.679 302.623 258.397 300.063 259.009C291.58 260.99 283.358 262.782 275.396 264.385C211.276 277.304 163.434 278.294 127.915 273.421C119.6 272.281 111.445 270.181 103.613 267.163C100.948 266.139 98.3432 265.012 95.7977 263.782C90.9643 261.469 86.3123 258.794 81.8814 255.78C80.69 254.976 79.5178 254.143 78.3647 253.282C74.1756 250.192 70.2155 246.803 66.5154 243.141L66.1924 242.818L65.5106 242.1C62.599 239.151 59.86 236.035 57.3073 232.77V232.77C57.0561 232.454 56.8121 232.139 56.5896 231.816C56.3671 231.493 56.1518 231.249 55.9365 230.954C55.7211 230.66 55.4125 230.237 55.1542 229.899C52.7269 226.585 50.4912 223.134 48.458 219.564C48.2929 219.285 48.1422 219.005 47.9843 218.732L47.7834 218.366C45.3061 213.885 43.1477 209.234 41.324 204.45C40.6566 202.706 40.0322 200.933 39.458 199.153C35.0349 185.502 33.3568 171.111 34.5202 156.808C34.5202 156.808 34.1183 87.2486 157.692 58.2032C362.152 10.0525 366.932 158.947 361.405 191.387Z" fill="#E7E7E6"/>
<path d="M86.4816 155.639L81.1275 154.641L86.2089 156.292L82.5557 165.033L71.9553 197.201L61.1179 196.383L71.3811 198.945L66.5151 213.665L62.4529 225.945L57.838 230.588L56.5964 231.83C56.3739 231.55 56.1586 231.263 55.9433 230.969C55.728 230.674 55.4194 230.251 55.161 229.914C52.7337 226.599 50.498 223.149 48.4648 219.579C48.2998 219.299 48.149 219.019 47.9911 218.746L47.7902 218.38C45.3129 213.899 43.1545 209.249 41.3309 204.464C40.6634 202.72 40.039 200.947 39.4648 199.167C40.24 189.974 43.5988 181.447 51.6227 176.33C74.8763 161.495 47.6754 151.045 94.3404 136.978L86.4816 155.639Z" fill="#DBDADA"/>
<path d="M86.4823 155.638L81.1283 154.641L86.2096 156.292L96.5302 159.65C94.5996 165.392 90.9249 172.289 84.4584 180.356C79.1546 186.981 77.2814 192.6 77.2096 197.581L71.9201 197.186L61.0828 196.368L71.346 198.93L77.3388 200.43C77.5968 202.507 78.078 204.55 78.7742 206.524C79.8938 209.883 81.4154 212.983 82.5493 216.048C84.2503 220.648 85.0685 225.098 82.2694 229.964C82.2221 230.055 82.1694 230.144 82.1115 230.229C79.8938 233.94 75.5589 237.887 67.9441 242.344C67.4632 242.617 66.9967 242.883 66.5086 243.127L66.1857 242.804L65.5039 242.086C62.5923 239.136 59.8532 236.021 57.3005 232.756C57.0493 232.44 56.8053 232.124 56.5828 231.801C56.3603 231.478 56.145 231.234 55.9297 230.94C55.7144 230.646 55.4058 230.222 55.1474 229.885C52.7201 226.57 50.4844 223.12 48.4512 219.55C48.2862 219.27 48.1354 218.99 47.9775 218.717C52.1474 194.136 69.0565 158.624 94.3053 136.949C94.3053 136.949 101.08 143.56 97.1761 157.583L86.4823 155.638Z" fill="#CFCECD"/>
<path d="M114.357 195.392L109.333 193.239L113.941 196.002L108.422 203.703L90.8593 232.677L82.2469 230L80.4885 229.455L82.089 230.266L89.8976 234.22L78.3426 253.275C74.1535 250.185 70.1934 246.796 66.4933 243.134L66.1703 242.811L65.4885 242.093C62.5769 239.144 59.8379 236.028 57.2852 232.763V232.763C57.4287 232.046 57.601 231.292 57.7876 230.567C59.388 224.108 62.0938 218.101 66.4646 213.644C69.0369 210.989 72.1884 208.965 75.6727 207.73C76.7852 207.335 77.8258 206.933 78.7301 206.51C79.5411 206.151 80.2804 205.792 80.9766 205.404C98.2014 196.002 81.4574 182.029 125.675 178.957H126.113L114.357 195.392Z" fill="#DBDADA"/>
<path d="M114.357 195.392L109.333 193.239L113.94 196.002L123.271 201.579C120.106 206.754 114.981 212.646 106.871 219.062C100.225 224.33 97.1605 229.397 95.9548 234.249L90.8878 232.677L82.2754 230L80.517 229.455L82.1175 230.266L89.8974 234.22L95.4022 237.019C94.2323 247.024 99.7084 256.031 95.7754 263.782C90.9419 261.469 86.29 258.794 81.8591 255.78C80.6677 254.976 79.4955 254.144 78.3424 253.282C74.1533 250.192 70.1932 246.803 66.4931 243.141L66.1701 242.818L65.4883 242.101C70.2176 232.829 75.9221 224.088 82.505 216.026C94.1964 201.529 109.34 187.735 126.113 178.921C126.113 178.921 131.23 186.88 124.29 199.677L114.357 195.392Z" fill="#CFCECD"/>
<path d="M361.406 191.388C361.241 192.622 361.047 193.835 360.825 195.048C360.112 199.004 359.099 202.901 357.796 206.703H269.174V191.388H361.406Z" fill="#DBDADA"/>
<path d="M357.796 206.703C353.809 218.345 347.208 228.919 338.499 237.613C329.791 246.307 319.206 252.89 307.557 256.856C305.107 257.679 302.602 258.397 300.042 259.01C291.559 260.99 283.337 262.782 275.375 264.385V206.703H357.796Z" fill="#DBDADA"/>
<path d="M357.795 206.703C356.122 211.6 353.978 216.323 351.393 220.806H275.389V206.703H357.795Z" fill="#CFCECD"/>
<path d="M300.924 173.093H341.072L335.13 191.388H291.981L300.924 173.093Z" fill="white"/>
<path d="M302.045 185.108L304.844 179.373H332.425L330.566 185.108H302.045Z" fill="#DBDADA"/>
<path d="M335.131 191.388H349.535L346.636 185.115H337.169L335.131 191.388Z" fill="#CFCECD"/>
<path d="M361.406 191.388C361.241 192.622 361.047 193.835 360.825 195.048H269.174V191.388H361.406Z" fill="#F3F3F3"/>
<path d="M125.69 178.979C96.5229 181.132 107.568 193.584 80.999 205.426C98.2383 196.003 81.4727 182.051 125.69 178.979Z" fill="#F3F3F3"/>
<path d="M335.131 191.388H349.535L346.636 185.115L341.073 173.093L337.169 185.115L335.131 191.388Z" fill="#DBDADA"/>
<path d="M114.588 207.697C121.683 199.746 130.673 201.336 136.039 203.142C141.481 204.707 149.809 208.46 151.169 219.032C151.907 224.769 147.749 240.811 145.549 248.724L145.321 249.856H145.244C144.1 249.462 129.986 244.576 126.057 244.767C125.205 244.767 123.807 244.856 122.103 244.869C115.835 244.869 105.256 244.373 100.933 240.773C101.186 239.527 101.504 238.296 101.886 237.083V237.083C101.886 237.083 109.388 213.523 114.588 207.697Z" fill="#00AFAA" stroke="#02938C" stroke-width="1.75" stroke-miterlimit="10"/>
<path d="M254.872 299.482C249.875 277.779 248.896 260.504 248.896 228.051C248.896 205.737 237.91 198.791 237.91 198.791L189.861 199.847H189.149V199.491H188.932L187.368 199.605L185.817 199.491H185.601V199.847H184.889L137.958 203.244C137.958 203.244 126.057 220.863 126.057 243.177C126.057 276.685 124.607 282.741 120.806 299.597" fill="#00AFAA"/>
<path d="M254.872 299.482C249.875 277.779 248.896 260.504 248.896 228.051C248.896 205.737 237.91 198.791 237.91 198.791L189.861 199.847H189.149V199.491H188.932L187.368 199.605L185.817 199.491H185.601V199.847H184.889L137.958 203.244C137.958 203.244 126.057 220.863 126.057 243.177C126.057 276.685 124.607 282.741 120.806 299.597" stroke="#02938C" stroke-width="1.75" stroke-linecap="round" stroke-linejoin="round"/>
<path d="M199.397 221.182C200.515 211.77 188.612 202.617 172.811 200.737C157.01 198.858 143.294 204.964 142.175 214.375C141.057 223.787 152.96 232.94 168.761 234.82C184.562 236.7 198.278 230.594 199.397 221.182Z" fill="#84CCCB"/>
<path d="M196.767 213.263C197.85 204.152 187.806 195.466 174.334 193.864C160.862 192.261 149.063 198.348 147.98 207.46C146.897 216.572 156.941 225.257 170.413 226.86C183.885 228.462 195.684 222.375 196.767 213.263Z" fill="#CFCECE"/>
<path d="M182.525 80.6717C182.525 80.6717 175.29 59.1468 152.009 57.7728C134.272 56.7933 124.329 70.6216 121.048 83.0252C121.048 83.0252 117.946 96.5482 126.134 102.718C125.838 106.386 126.387 110.073 127.738 113.496C129.09 116.919 131.207 119.986 133.929 122.462C141.036 128.235 149.817 131.555 158.964 131.927" fill="white"/>
<path d="M182.525 80.6717C182.525 80.6717 175.29 59.1468 152.009 57.7728C134.272 56.7933 124.329 70.6216 121.048 83.0252C121.048 83.0252 117.946 96.5482 126.134 102.718C125.838 106.386 126.387 110.073 127.738 113.496C129.09 116.919 131.207 119.986 133.929 122.462C141.036 128.235 149.817 131.555 158.964 131.927" stroke="#D0CECE" stroke-width="1.67" stroke-miterlimit="10" stroke-linecap="round"/>
<path d="M266.928 139.483C266.928 139.483 264.881 89.2711 220.836 71.8553C176.792 54.4394 133.764 59.0446 113.293 120.528C113.293 120.528 70.2783 146.518 91.2707 189.708C111.22 230.735 220.328 253.748 259.757 184.619C259.757 184.581 269.484 166.644 266.928 139.483Z" fill="white" stroke="#D0CECE" stroke-width="1.67" stroke-miterlimit="10" stroke-linecap="round"/>
<path d="M241.993 97.1084C250.004 90.3405 266.253 80.4686 287.983 87.0075C312.014 94.2333 318.499 117.374 316.948 135.349C316.948 135.349 314.532 154.813 300.685 159.037C300.685 159.037 297.697 174.087 280.787 181.503C271.749 184.603 262.107 185.519 252.648 184.175" fill="white"/>
<path d="M241.993 97.1084C250.004 90.3405 266.253 80.4686 287.983 87.0075C312.014 94.2333 318.499 117.374 316.948 135.349C316.948 135.349 314.532 154.813 300.685 159.037C300.685 159.037 297.697 174.087 280.787 181.503C271.749 184.603 262.107 185.519 252.648 184.175" stroke="#D0CECE" stroke-width="1.67" stroke-miterlimit="10" stroke-linecap="round"/>
<path d="M291.823 124.294C289.521 105.759 271.924 96.5612 256.145 103.38C253.205 104.648 250.423 106.253 247.854 108.163C251.097 114.015 259.133 133.301 249.851 168.871C252.643 169.063 255.447 169.012 258.23 168.718C276.374 167.446 281.117 149.636 281.117 149.636C293.018 139.891 291.823 124.294 291.823 124.294Z" fill="#CFCECE"/>
<path d="M152.237 152.205C148.194 161.695 142.65 161.924 136.98 159.494C131.309 157.064 127.621 152.917 131.665 143.414C135.708 133.911 143.591 128.148 149.288 130.616C154.984 133.084 156.281 142.702 152.237 152.205Z" fill="#3F4847"/>
<path d="M133.599 130.471C135.823 125.804 135.042 120.787 131.853 119.266C128.665 117.745 124.277 120.296 122.053 124.964C119.828 129.632 120.61 134.648 123.798 136.169C126.987 137.69 131.375 135.139 133.599 130.471Z" fill="#3F4847"/>
<path d="M132.709 125.577C132.981 125.006 132.883 124.392 132.49 124.204C132.097 124.017 131.557 124.327 131.285 124.898C131.013 125.469 131.112 126.084 131.505 126.271C131.898 126.459 132.437 126.148 132.709 125.577Z" fill="white"/>
<path d="M178.258 146.753C180.721 141.584 179.408 135.816 175.326 133.868C171.244 131.921 165.938 134.533 163.475 139.701C161.012 144.87 162.325 150.639 166.407 152.586C170.489 154.533 175.795 151.922 178.258 146.753Z" fill="#3F4847"/>
<path d="M176.807 141.121C177.109 140.487 176.948 139.779 176.447 139.54C175.947 139.301 175.296 139.622 174.993 140.256C174.691 140.89 174.852 141.598 175.353 141.837C175.854 142.075 176.505 141.755 176.807 141.121Z" fill="white"/>
<path d="M148.144 185.395C151.03 185.395 153.37 182.781 153.37 179.556C153.37 176.331 151.03 173.717 148.144 173.717C145.258 173.717 142.918 176.331 142.918 179.556C142.918 182.781 145.258 185.395 148.144 185.395Z" fill="#3F4847"/>
<path d="M153.064 180.218C153.129 181.106 152.95 181.995 152.546 182.789C152.143 183.583 151.531 184.251 150.775 184.722C148.897 185.526 146.777 185.558 144.875 184.811H144.646C144.884 183.915 145.314 183.082 145.907 182.37C146.5 181.658 147.242 181.084 148.08 180.689C149.67 179.843 151.475 179.489 153.267 179.671C153.142 179.826 153.07 180.019 153.064 180.218V180.218Z" fill="#F58A86"/>
<path d="M148.144 185.395C151.03 185.395 153.37 182.781 153.37 179.556C153.37 176.331 151.03 173.717 148.144 173.717C145.258 173.717 142.918 176.331 142.918 179.556C142.918 182.781 145.258 185.395 148.144 185.395Z" stroke="#3F4847" stroke-width="1.68" stroke-linecap="round" stroke-linejoin="round"/>
<path d="M233.181 301.454C240.098 289.305 240.708 286.926 238.191 280.947C235.826 275.311 224.84 259.079 224.84 259.079C226.988 252.809 229.774 246.777 233.155 241.078C247.282 219.158 259.857 225.812 259.857 225.812C259.857 225.812 279.158 254.766 282.528 274.345C284.285 283.508 283.115 292.993 279.184 301.454" fill="white"/>
<path d="M233.181 301.454C240.098 289.305 240.708 286.926 238.191 280.947C235.826 275.311 224.84 259.079 224.84 259.079C226.988 252.809 229.774 246.777 233.155 241.078C247.282 219.158 259.857 225.812 259.857 225.812C259.857 225.812 279.158 254.766 282.528 274.345C284.285 283.508 283.115 292.993 279.184 301.454" stroke="#CFCECE" stroke-width="1.75" stroke-linecap="round" stroke-linejoin="round"/>
<path d="M126.721 207.417C126.721 207.417 136.625 205.114 137.528 217.174C138.431 229.234 132.709 236.676 129.403 239.526L131.743 259.333C131.743 259.333 135.379 275.452 121.215 282.232C107.05 289.013 91.462 274.357 90.8516 259.092C90.687 249.427 93.101 239.893 97.8449 231.473L108.335 210.152L126.721 207.417Z" fill="white" stroke="#D0CECE" stroke-width="1.75" stroke-miterlimit="10" stroke-linecap="round"/>
<path d="M100.705 234.654C98.9121 233.051 98.5561 230.774 98.1619 228.522C97.6012 224.272 98.4977 219.958 100.705 216.284C100.705 216.284 100.705 206.335 107.329 205.432C107.329 205.432 113.14 187.953 129.606 196.4C135.633 199.478 132.619 207.951 123.884 207.595C123.884 207.595 129.606 214.77 123.592 219.897C123.973 220.762 128.322 229.959 116.688 232.491" fill="white"/>
<path d="M100.209 235.124C99.8613 234.842 99.5458 234.522 99.2682 234.17C98.9844 233.814 98.7373 233.431 98.5307 233.025C98.1405 232.239 97.8418 231.411 97.6407 230.557C97.5516 230.15 97.4626 229.73 97.3864 229.285L97.2846 228.687L97.1829 228.051C97.0551 227.209 96.9914 226.359 96.9922 225.507C96.9964 223.785 97.2403 222.072 97.7169 220.418C98.1785 218.768 98.8448 217.183 99.7005 215.698L99.5479 216.258C99.5479 215.584 99.5479 214.986 99.6751 214.401C99.7405 213.794 99.8381 213.191 99.9675 212.594C100.202 211.373 100.586 210.185 101.112 209.058C101.655 207.86 102.448 206.793 103.439 205.928C103.96 205.483 104.543 205.115 105.168 204.834C105.798 204.565 106.46 204.381 107.139 204.287L106.211 205.051C106.562 204.082 106.987 203.142 107.482 202.239C107.954 201.356 108.485 200.506 109.071 199.695C110.259 198.008 111.73 196.54 113.42 195.357C115.152 194.15 117.142 193.366 119.231 193.067C120.267 192.927 121.316 192.902 122.359 192.99C123.386 193.067 124.403 193.242 125.397 193.512C126.379 193.777 127.343 194.104 128.284 194.492C128.754 194.67 129.199 194.911 129.657 195.115L129.988 195.28L130.204 195.382L130.356 195.471C130.56 195.586 130.776 195.713 131.043 195.891C132.026 196.547 132.82 197.451 133.344 198.512C133.85 199.599 134.031 200.809 133.866 201.997C133.673 203.123 133.23 204.19 132.569 205.122C131.909 206.053 131.049 206.824 130.051 207.379C128.16 208.433 126.007 208.923 123.846 208.791L124.838 206.844C125.067 207.137 125.219 207.379 125.397 207.646C125.575 207.913 125.728 208.167 125.881 208.434C126.182 208.979 126.454 209.539 126.694 210.114C127.176 211.302 127.46 212.561 127.534 213.841C127.59 215.158 127.324 216.468 126.758 217.658C126.175 218.833 125.352 219.874 124.342 220.711L124.647 219.362C125.316 220.782 125.717 222.313 125.83 223.878C125.966 225.538 125.612 227.201 124.813 228.662C123.959 230.067 122.736 231.211 121.278 231.969C120.591 232.338 119.877 232.653 119.142 232.911C118.404 233.153 117.679 233.343 116.942 233.509C116.8 233.541 116.653 233.546 116.51 233.521C116.366 233.497 116.229 233.445 116.105 233.367C115.982 233.29 115.875 233.189 115.79 233.07C115.706 232.952 115.646 232.817 115.613 232.675C115.581 232.533 115.576 232.386 115.601 232.243C115.625 232.099 115.677 231.962 115.754 231.838C115.832 231.715 115.933 231.608 116.051 231.523C116.17 231.439 116.304 231.379 116.446 231.346C117.099 231.203 117.745 231.024 118.379 230.812C118.996 230.602 119.592 230.333 120.159 230.01C121.261 229.457 122.183 228.601 122.816 227.542C123.389 226.471 123.637 225.255 123.528 224.044C123.474 223.408 123.363 222.778 123.198 222.161C123.022 221.529 122.797 220.912 122.524 220.316L122.168 219.54L122.829 218.968C123.574 218.333 124.184 217.554 124.622 216.678C125.018 215.805 125.197 214.849 125.143 213.892C125.076 212.884 124.839 211.895 124.444 210.966C124.24 210.495 124.011 210.025 123.757 209.567L123.338 208.969C123.198 208.765 123.032 208.524 122.905 208.371L121.329 206.323L123.872 206.424C125.577 206.535 127.279 206.16 128.78 205.343C129.472 204.976 130.074 204.456 130.538 203.824C131.003 203.192 131.319 202.463 131.462 201.692C131.574 200.965 131.468 200.222 131.157 199.555C130.697 198.704 129.999 198.005 129.148 197.545L128.996 197.456H128.881L128.576 197.303C128.157 197.125 127.75 196.896 127.305 196.731C126.477 196.378 125.628 196.081 124.762 195.84C123.903 195.613 123.027 195.459 122.142 195.382C121.265 195.308 120.383 195.329 119.51 195.446C117.785 195.663 116.135 196.282 114.691 197.252C113.206 198.29 111.915 199.582 110.877 201.069C110.345 201.81 109.865 202.588 109.44 203.397C109.011 204.165 108.642 204.964 108.334 205.788L108.092 206.463L107.418 206.552C106.483 206.681 105.603 207.069 104.875 207.671C104.13 208.332 103.532 209.142 103.121 210.05C102.677 211.019 102.344 212.034 102.129 213.078C102.015 213.612 101.938 214.146 101.862 214.681C101.786 215.215 101.76 215.788 101.748 216.284V216.602L101.608 216.843C100.836 218.18 100.209 219.596 99.7386 221.067C99.2906 222.534 99.03 224.051 98.963 225.583C98.9062 226.345 98.9062 227.111 98.963 227.873V228.458L99.052 229.056C99.052 229.451 99.1537 229.832 99.2173 230.214C99.3293 230.959 99.5255 231.689 99.8022 232.389C99.9342 232.719 100.1 233.035 100.298 233.331C100.498 233.641 100.728 233.93 100.985 234.196C101.047 234.254 101.098 234.324 101.133 234.402C101.169 234.48 101.189 234.565 101.192 234.65C101.194 234.736 101.181 234.821 101.15 234.902C101.12 234.982 101.075 235.055 101.016 235.118C100.958 235.181 100.888 235.231 100.81 235.267C100.732 235.302 100.648 235.322 100.562 235.325C100.477 235.328 100.391 235.314 100.311 235.284C100.231 235.254 100.157 235.208 100.095 235.15L100.209 235.124Z" fill="#D0CECE"/>
<path d="M117.628 231.956L117.767 232.248C117.844 232.427 117.984 232.732 118.111 233.063C118.435 233.888 118.69 234.739 118.874 235.607C119.142 236.86 119.24 238.144 119.166 239.423V239.423C119.166 239.592 119.099 239.754 118.98 239.873C118.861 239.992 118.699 240.059 118.53 240.059C118.362 240.059 118.2 239.992 118.081 239.873C117.962 239.754 117.895 239.592 117.895 239.423C117.799 238.269 117.556 237.132 117.17 236.039C116.899 235.297 116.567 234.578 116.178 233.889L115.784 233.228L115.606 232.961C115.517 232.836 115.454 232.695 115.422 232.546C115.389 232.396 115.388 232.241 115.418 232.091C115.448 231.941 115.508 231.799 115.595 231.673C115.681 231.547 115.793 231.44 115.923 231.359C116.053 231.278 116.198 231.224 116.349 231.202C116.5 231.179 116.654 231.187 116.802 231.227C116.95 231.266 117.088 231.335 117.208 231.43C117.329 231.525 117.428 231.643 117.5 231.778L117.628 231.956Z" fill="#D0CECE"/>
<path d="M112.95 226.919C112.95 226.919 113.318 227.186 113.802 227.593C114.399 228.104 114.968 228.648 115.505 229.221C116.288 230.068 116.998 230.979 117.629 231.944V231.944C117.723 232.067 117.791 232.209 117.827 232.359C117.864 232.51 117.869 232.667 117.842 232.82C117.815 232.973 117.756 233.118 117.67 233.247C117.583 233.376 117.471 233.486 117.34 233.569C117.209 233.652 117.062 233.707 116.909 233.731C116.755 233.754 116.599 233.746 116.449 233.705C116.299 233.665 116.159 233.594 116.039 233.496C115.918 233.399 115.818 233.277 115.747 233.14L115.671 233C115.23 232.063 114.711 231.165 114.119 230.315C113.728 229.723 113.304 229.154 112.848 228.611C112.441 228.165 112.174 227.911 112.174 227.911C112.113 227.852 112.064 227.781 112.03 227.702C111.997 227.623 111.979 227.539 111.979 227.453C111.979 227.368 111.997 227.283 112.03 227.204C112.064 227.126 112.113 227.054 112.174 226.995C112.278 226.9 112.409 226.841 112.549 226.827C112.689 226.814 112.83 226.846 112.95 226.919V226.919Z" fill="#D0CECE"/>
<path d="M132.491 220.024C132.491 220.024 132.491 220.227 132.377 220.545C132.262 220.979 132.117 221.404 131.945 221.818C131.416 223.025 130.695 224.138 129.808 225.112C129.332 225.629 128.822 226.113 128.283 226.563C127.749 226.97 127.24 227.339 126.782 227.619C126.325 227.899 125.93 228.102 125.651 228.255L125.218 228.484C125.09 228.554 124.949 228.599 124.804 228.614C124.658 228.629 124.511 228.615 124.371 228.572C124.231 228.529 124.102 228.459 123.989 228.365C123.877 228.271 123.785 228.156 123.718 228.026C123.578 227.764 123.548 227.458 123.634 227.174C123.72 226.89 123.915 226.652 124.176 226.512H124.252H124.328L124.722 226.346C125.07 226.203 125.409 226.041 125.74 225.863C126.215 225.628 126.674 225.36 127.113 225.062C127.614 224.723 128.089 224.349 128.537 223.942C129.366 223.163 130.066 222.257 130.609 221.258C130.792 220.933 130.945 220.592 131.067 220.24C131.114 220.12 131.152 219.997 131.182 219.871C131.24 219.73 131.346 219.614 131.481 219.542C131.616 219.47 131.772 219.447 131.922 219.477C132.071 219.507 132.206 219.588 132.303 219.706C132.4 219.824 132.453 219.973 132.453 220.126L132.491 220.024Z" fill="#D0CECE"/>
<path d="M112.364 206.73C113.064 206.465 113.782 206.248 114.513 206.081C115.263 205.906 116.023 205.779 116.789 205.7C117.211 205.649 117.635 205.624 118.06 205.623C118.518 205.598 118.976 205.598 119.433 205.623C119.891 205.623 120.349 205.725 120.807 205.814C121.239 205.911 121.664 206.038 122.078 206.196C122.492 206.331 122.893 206.506 123.273 206.717C123.626 206.889 123.963 207.094 124.278 207.328L125.079 207.951L125.613 208.511L126.071 209.007C126.279 209.217 126.395 209.5 126.395 209.796C126.395 210.091 126.279 210.375 126.071 210.585C125.964 210.685 125.837 210.764 125.7 210.815C125.562 210.866 125.416 210.89 125.269 210.884C125.122 210.878 124.978 210.843 124.845 210.78C124.712 210.718 124.593 210.63 124.494 210.521V210.457L124.392 210.33L124.074 209.936L123.706 209.465L123.133 208.956C122.91 208.755 122.667 208.576 122.409 208.422C122.118 208.232 121.812 208.066 121.493 207.926C121.15 207.772 120.798 207.64 120.438 207.532C120.057 207.422 119.671 207.332 119.281 207.264C118.874 207.264 118.48 207.137 118.073 207.124C117.666 207.112 117.272 207.124 116.89 207.124C116.18 207.146 115.471 207.205 114.767 207.303C114.08 207.407 113.401 207.556 112.733 207.748C112.6 207.782 112.459 207.764 112.338 207.699C112.217 207.634 112.126 207.526 112.081 207.396C112.036 207.267 112.042 207.125 112.096 206.999C112.151 206.873 112.251 206.773 112.377 206.717L112.364 206.73Z" fill="#D0CECE"/>
<path d="M111.042 219.235C111.042 219.235 114.182 218.662 117.399 218.395C118.905 218.27 120.419 218.27 121.926 218.395C122.229 218.423 122.53 218.465 122.828 218.523C123.073 218.568 123.315 218.628 123.553 218.701L124.24 218.981C124.376 219.032 124.501 219.111 124.606 219.212C124.712 219.313 124.796 219.434 124.854 219.568C124.912 219.702 124.943 219.846 124.944 219.992C124.946 220.138 124.918 220.283 124.863 220.418C124.75 220.681 124.541 220.891 124.279 221.004C124.016 221.118 123.72 221.127 123.451 221.029L123.159 220.914L122.841 220.762C122.739 220.762 122.549 220.672 122.371 220.609C122.14 220.549 121.907 220.502 121.671 220.469C120.29 220.272 118.895 220.191 117.501 220.227C114.386 220.227 111.258 220.609 111.258 220.609C111.116 220.587 110.985 220.52 110.884 220.418C110.783 220.316 110.717 220.185 110.696 220.043C110.675 219.901 110.699 219.756 110.766 219.629C110.833 219.502 110.938 219.4 111.067 219.337L111.042 219.235Z" fill="#D0CECE"/>
<path d="M223.391 205.636C206.658 214.973 206.938 221.716 208.845 232.758C211.592 248.596 221.56 261.903 221.56 261.903C222.185 263.049 222.881 264.153 223.645 265.211C226.837 263.939 234.135 255.034 246.532 246.065C258.929 237.096 267.868 235.252 267.868 235.252C244.282 193.856 223.404 205.636 223.391 205.636Z" fill="#00AFAA"/>
<path d="M219.309 255.427C221.331 258.239 223.454 260.987 225.578 263.722L224.306 263.302C225.172 262.87 225.969 262.313 226.671 261.648C227.472 260.949 228.261 260.211 229.049 259.447L233.83 254.893C237.047 251.853 240.391 248.927 243.9 246.204C244.777 245.53 245.642 244.856 246.583 244.207C247.524 243.558 248.35 242.935 249.317 242.324C251.186 241.052 253.131 239.945 255.089 238.877C257.066 237.821 259.1 236.874 261.18 236.04C262.235 235.62 263.29 235.238 264.371 234.895C265.471 234.533 266.592 234.24 267.728 234.017L266.876 235.9C265.91 234.335 264.931 232.783 263.926 231.244C262.922 229.704 261.892 228.203 260.849 226.702C258.76 223.712 256.51 220.837 254.11 218.09C251.744 215.358 249.107 212.873 246.24 210.673C243.43 208.502 240.22 206.906 236.792 205.979C233.351 205.139 229.762 205.1 226.303 205.864C224.599 206.232 222.953 206.827 221.407 207.633C219.848 208.451 218.396 209.46 217.084 210.635C214.443 213.049 212.319 215.975 210.841 219.235C209.312 222.509 208.448 226.055 208.298 229.666C208.295 229.792 208.243 229.912 208.152 230C208.062 230.088 207.941 230.137 207.815 230.137C207.695 230.129 207.582 230.078 207.496 229.994C207.41 229.91 207.356 229.799 207.345 229.679C207.238 225.866 207.929 222.072 209.372 218.541C210.814 215.01 212.978 211.819 215.724 209.172C217.136 207.849 218.708 206.708 220.403 205.775C222.118 204.838 223.953 204.14 225.858 203.702C229.622 202.828 233.537 202.828 237.301 203.702C241.032 204.681 244.532 206.388 247.6 208.727C250.612 211.006 253.385 213.585 255.878 216.423C260.77 222.064 265.149 228.131 268.961 234.551C269.124 234.835 269.171 235.17 269.093 235.488C269.014 235.805 268.817 236.08 268.542 236.256C268.42 236.34 268.281 236.397 268.135 236.421V236.421C267.113 236.613 266.106 236.876 265.121 237.21C264.104 237.528 263.1 237.884 262.095 238.279C260.099 239.082 258.147 239.991 256.246 241.001C254.352 242.032 252.432 243.113 250.69 244.309C249.8 244.869 248.897 245.581 247.994 246.166C247.092 246.751 246.252 247.438 245.451 248.087C241.993 250.72 238.687 253.57 235.483 256.534L230.6 261.127C229.787 261.877 228.973 262.641 228.057 263.378C227.148 264.212 226.114 264.899 224.993 265.414V265.414H224.904C224.682 265.49 224.441 265.488 224.221 265.407C224.001 265.326 223.815 265.171 223.696 264.969C221.941 261.941 220.199 258.939 218.61 255.847C218.561 255.749 218.552 255.636 218.585 255.531C218.618 255.426 218.691 255.339 218.788 255.288C218.877 255.243 218.979 255.233 219.075 255.259C219.171 255.284 219.255 255.344 219.309 255.427Z" fill="#02938C"/>
<path d="M199.169 102.348L196.46 101.407C195.646 101.114 194.706 100.784 193.688 100.517C192.671 100.249 191.565 100.033 190.459 99.8677C189.353 99.7023 188.234 99.626 187.191 99.5751H185.678H184.317H182.219H181.406C181.338 99.5735 181.271 99.5583 181.209 99.5304C181.147 99.5025 181.091 99.4625 181.045 99.4127C180.999 99.3629 180.963 99.3043 180.94 99.2404C180.917 99.1766 180.906 99.1087 180.91 99.0408C180.911 98.9625 180.932 98.8857 180.969 98.817C181.007 98.7483 181.061 98.6897 181.126 98.6464V98.6464C182.006 98.0649 182.977 97.6349 184 97.3743C184.493 97.2451 184.994 97.1474 185.5 97.0817C186.053 97.021 186.61 96.9997 187.166 97.0181C188.396 96.9679 189.627 97.0489 190.84 97.2598C193.117 97.6664 195.312 98.4443 197.338 99.5624C198.28 100.056 199.138 100.696 199.881 101.458C199.961 101.553 200.009 101.671 200.016 101.795C200.023 101.92 199.99 102.043 199.921 102.146C199.852 102.25 199.751 102.328 199.634 102.369C199.516 102.41 199.389 102.412 199.27 102.374L199.169 102.348Z" fill="#D0CECE"/>
<path d="M155.9 92.1334L155.417 91.8408C155.112 91.6627 154.679 91.3828 154.145 91.0521L153.331 90.5178C153.064 90.3397 152.747 90.1488 152.429 89.9707C151.752 89.602 151.056 89.2707 150.343 88.9785C149.619 88.6731 148.881 88.406 148.182 88.1897L146.237 87.63C145.652 87.4519 145.156 87.3119 144.8 87.172C144.605 87.1111 144.414 87.0389 144.228 86.9557C144.163 86.9269 144.105 86.8855 144.056 86.8339C144.008 86.7824 143.97 86.7217 143.945 86.6554C143.92 86.5891 143.909 86.5186 143.912 86.4478C143.914 86.3771 143.931 86.3076 143.961 86.2433C144.014 86.1286 144.103 86.0347 144.215 85.9762C144.937 85.6982 145.705 85.5601 146.478 85.5691C147.269 85.5434 148.061 85.6247 148.83 85.8108C149.707 85.992 150.561 86.2738 151.373 86.6504C152.197 87.0294 152.981 87.4897 153.713 88.0243C154.056 88.2788 154.374 88.5332 154.692 88.8004C154.97 89.0385 155.233 89.2934 155.48 89.5637C155.862 89.9706 156.19 90.4236 156.459 90.9121C156.564 91.1103 156.657 91.3142 156.739 91.5228C156.765 91.5946 156.776 91.6708 156.773 91.7471C156.769 91.8233 156.75 91.898 156.716 91.9667C156.683 92.0355 156.637 92.0969 156.579 92.1474C156.522 92.1979 156.455 92.2364 156.383 92.2606C156.309 92.2925 156.229 92.3089 156.148 92.3089C156.067 92.3089 155.987 92.2925 155.913 92.2606L155.9 92.1334Z" fill="#D0CECE"/>
<path d="M56.9521 1.45411C87.646 1.45411 112.542 18.2975 112.542 39.0845C112.542 47.4044 108.588 55.0374 101.887 61.2328V77.9362L82.8143 72.3387C74.5014 75.2386 65.7557 76.7012 56.9521 76.664C26.2582 76.664 1.36229 59.8588 1.375 39.0845C1.38772 18.3102 26.2582 1.44139 56.9521 1.45411Z" fill="white" stroke="#D0CECE" stroke-width="1.75" stroke-miterlimit="10"/>
<path d="M44.2366 43.0281C46.0694 43.0281 47.5552 41.5416 47.5552 39.7078C47.5552 37.874 46.0694 36.3875 44.2366 36.3875C42.4038 36.3875 40.918 37.874 40.918 39.7078C40.918 41.5416 42.4038 43.0281 44.2366 43.0281Z" fill="white" stroke="#D0CECE" stroke-width="1.67" stroke-miterlimit="10" stroke-linecap="round"/>
<path d="M56.9524 43.0281C58.7852 43.0281 60.271 41.5416 60.271 39.7078C60.271 37.874 58.7852 36.3875 56.9524 36.3875C55.1196 36.3875 53.6338 37.874 53.6338 39.7078C53.6338 41.5416 55.1196 43.0281 56.9524 43.0281Z" fill="white" stroke="#D0CECE" stroke-width="1.67" stroke-miterlimit="10" stroke-linecap="round"/>
<path d="M69.6672 43.0281C71.5001 43.0281 72.9858 41.5416 72.9858 39.7078C72.9858 37.874 71.5001 36.3875 69.6672 36.3875C67.8344 36.3875 66.3486 37.874 66.3486 39.7078C66.3486 41.5416 67.8344 43.0281 69.6672 43.0281Z" fill="white" stroke="#D0CECE" stroke-width="1.67" stroke-miterlimit="10" stroke-linecap="round"/>
<path d="M273.751 322.902C272.812 322.902 272.087 322.646 271.575 322.134C271.063 321.622 270.807 320.875 270.807 319.894V313.046H253.015C252.076 313.046 251.308 312.833 250.711 312.406C250.156 311.979 249.879 311.318 249.879 310.422C249.879 309.91 250.007 309.377 250.263 308.822C250.519 308.267 250.967 307.521 251.607 306.582L270.615 278.87C271.084 278.23 271.575 277.739 272.087 277.398C272.641 277.057 273.26 276.886 273.943 276.886C274.711 276.886 275.351 277.142 275.863 277.654C276.417 278.123 276.695 278.87 276.695 279.894V307.99H281.047C281.985 307.99 282.689 308.203 283.159 308.63C283.628 309.057 283.863 309.675 283.863 310.486C283.863 311.339 283.628 311.979 283.159 312.406C282.689 312.833 281.985 313.046 281.047 313.046H276.695V319.894C276.695 320.875 276.439 321.622 275.927 322.134C275.415 322.646 274.689 322.902 273.751 322.902ZM270.807 307.99V284.31H272.407L255.127 309.59V307.99H270.807ZM304.638 323.03C299.432 323.03 295.464 321.046 292.734 317.078C290.046 313.067 288.702 307.329 288.702 299.862C288.702 294.785 289.299 290.539 290.494 287.126C291.731 283.713 293.523 281.131 295.87 279.382C298.259 277.633 301.182 276.758 304.638 276.758C309.886 276.758 313.854 278.721 316.542 282.646C319.23 286.529 320.574 292.246 320.574 299.798C320.574 304.79 319.955 309.014 318.718 312.47C317.523 315.926 315.752 318.55 313.406 320.342C311.059 322.134 308.136 323.03 304.638 323.03ZM304.638 317.974C308.051 317.974 310.59 316.502 312.254 313.558C313.918 310.614 314.75 306.027 314.75 299.798C314.75 293.569 313.918 289.025 312.254 286.166C310.632 283.265 308.094 281.814 304.638 281.814C301.224 281.814 298.686 283.265 297.022 286.166C295.358 289.025 294.526 293.569 294.526 299.798C294.526 306.027 295.358 310.614 297.022 313.558C298.686 316.502 301.224 317.974 304.638 317.974ZM350.501 322.902C349.562 322.902 348.837 322.646 348.325 322.134C347.813 321.622 347.557 320.875 347.557 319.894V313.046H329.765C328.826 313.046 328.058 312.833 327.461 312.406C326.906 311.979 326.629 311.318 326.629 310.422C326.629 309.91 326.757 309.377 327.013 308.822C327.269 308.267 327.717 307.521 328.357 306.582L347.365 278.87C347.834 278.23 348.325 277.739 348.837 277.398C349.391 277.057 350.01 276.886 350.693 276.886C351.461 276.886 352.101 277.142 352.613 277.654C353.167 278.123 353.445 278.87 353.445 279.894V307.99H357.797C358.735 307.99 359.439 308.203 359.909 308.63C360.378 309.057 360.613 309.675 360.613 310.486C360.613 311.339 360.378 311.979 359.909 312.406C359.439 312.833 358.735 313.046 357.797 313.046H353.445V319.894C353.445 320.875 353.189 321.622 352.677 322.134C352.165 322.646 351.439 322.902 350.501 322.902ZM347.557 307.99V284.31H349.157L331.877 309.59V307.99H347.557Z" fill="#1F7F7F"/>
</svg>
