<svg height="200px" width="200px" version="1.1" id="Layer_1" xmlns="http://www.w3.org/2000/svg" xmlns:xlink="http://www.w3.org/1999/xlink" viewBox="0 0 512 512" xml:space="preserve" fill="#000000"><g id="SVGRepo_bgCarrier" stroke-width="0"></g><g id="SVGRepo_tracerCarrier" stroke-linecap="round" stroke-linejoin="round"></g><g id="SVGRepo_iconCarrier"> <g> <path style="fill:#FF2C47;" d="M53.333,101.331c77.267,0,110.443-90.664,202.666-90.664c92.222,0,125.4,90.664,202.667,90.664 c0,250.41-62.866,319.29-202.667,400.002C116.198,420.621,53.333,351.741,53.333,101.331z"></path> <path style="fill:#FF9600;" d="M366.33,140.988L366.33,140.988c9.34,9.337,9.336,24.609,0.004,33.946L230.538,310.725l0,0v0.004 l-0.442,0.43l0,0l-0.452,0.417l0,0l-0.457,0.403l0,0l-0.468,0.387v0.003l-0.473,0.374l0,0l-0.481,0.365l-0.485,0.347l-0.5,0.335 l0,0l-0.498,0.321l-0.509,0.308l-0.516,0.294l0,0l-0.516,0.278v0.004l-0.525,0.265l0,0l-0.529,0.252l-0.54,0.239v0.004 l-0.538,0.222l-0.542,0.212l0,0l-0.553,0.201l0,0l-0.553,0.182v0.004l-0.555,0.169l-0.56,0.156l-0.56,0.144l0,0l-0.569,0.13 l-0.562,0.116l-0.569,0.1v0.004l-0.569,0.087l-0.577,0.074l-0.573,0.061v0.004l-0.573,0.048l0,0l-0.577,0.03v0.004l-0.579,0.018 l-0.577,0.009l-0.573-0.009l-0.577-0.018v-0.004l-0.577-0.03l0,0l-0.577-0.048v-0.004l-0.573-0.061l-0.573-0.074l-0.569-0.087 v-0.004l-0.573-0.1l-0.564-0.116l-0.562-0.13l0,0l-0.564-0.144l-0.56-0.156l-0.556-0.169v-0.004l-0.546-0.182l0,0l-0.553-0.201l0,0 l-0.542-0.212l-0.544-0.222v-0.004l-0.533-0.239l-0.529-0.252l0,0l-0.525-0.269l-0.521-0.278l0,0l-0.512-0.294l-0.509-0.308 l-0.502-0.321l-0.496-0.335l-0.485-0.347l-0.487-0.365l-0.473-0.378l-0.465-0.387l-0.459-0.403l-0.448-0.417l-0.442-0.434 l-50.925-50.92c-9.336-9.337-9.336-24.609,0-33.95l0,0c9.336-9.336,24.613-9.336,33.95,0l33.944,33.95l118.823-118.817 C341.721,131.653,356.994,131.653,366.33,140.988L366.33,140.988z"></path> </g> <g> <path style="fill:#000003;" d="M458.667,90.664c-33.292,0-58.559-19.483-85.312-40.109C342.62,26.859,307.783,0,255.999,0 s-86.62,26.859-117.356,50.556c-26.751,20.625-52.019,40.108-85.31,40.108c-5.889,0-10.667,4.777-10.667,10.667 c0,124.545,15.511,207.475,50.294,268.895c34.538,60.989,85.951,98.917,157.706,140.345c1.65,0.953,3.491,1.429,5.333,1.429 s3.683-0.476,5.333-1.429c71.758-41.428,123.168-79.357,157.708-140.345c34.781-61.419,50.292-144.349,50.292-268.895 C469.333,95.441,464.556,90.664,458.667,90.664z M255.999,489.001C127.333,413.973,65.719,349.338,64.035,111.464 c35.144-3.542,61.791-24.087,87.636-44.013c29.404-22.672,59.813-46.117,104.327-46.117c44.516,0,74.921,23.445,104.329,46.117 c25.845,19.927,52.492,40.47,87.636,44.013C446.28,349.338,384.666,413.973,255.999,489.001z"></path> <path style="fill:#000003;" d="M129.969,121.821c-2.746-5.213-9.196-7.213-14.409-4.468c-1.325,0.698-2.669,1.383-4.017,2.048 c-5.285,2.602-7.46,8.997-4.859,14.282c1.856,3.771,5.642,5.957,9.578,5.957c1.581,0,3.189-0.353,4.704-1.099 c1.523-0.75,3.038-1.523,4.533-2.31C130.713,133.484,132.713,127.034,129.969,121.821z"></path> <path style="fill:#000003;" d="M411.585,205.466c0.327,0.03,0.654,0.045,0.977,0.045c5.454,0,10.109-4.163,10.61-9.702 c0.125-1.362,0.243-2.731,0.358-4.093c0.498-5.87-3.858-11.032-9.729-11.529c-5.862-0.505-11.032,3.858-11.528,9.728 c-0.112,1.318-0.227,2.642-0.348,3.962C401.392,199.744,405.718,204.932,411.585,205.466z"></path> <path style="fill:#000003;" d="M151.053,118.127c2.162,0,4.346-0.656,6.234-2.02c6.179-4.461,12.199-9.043,18.017-13.475 c27.227-20.731,50.74-38.634,80.696-38.634c5.891,0,10.667-4.777,10.667-10.667S261.891,42.664,256,42.664 c-37.155,0-64.582,20.883-93.62,42.995c-5.714,4.351-11.623,8.85-17.581,13.152c-4.778,3.449-5.852,10.115-2.404,14.892 C144.48,116.592,147.742,118.127,151.053,118.127z"></path> <path style="fill:#000003;" d="M255.999,439.29c-27.298-16.831-60.269-39.432-84.991-68.579c-3.81-4.493-10.542-5.045-15.034-1.236 c-4.494,3.81-5.048,10.542-1.237,15.035c28.402,33.489,66.08,58.423,95.73,76.405c0.054,0.032,0.112,0.054,0.166,0.086 c0.256,0.148,0.518,0.277,0.785,0.404c0.171,0.081,0.341,0.17,0.514,0.242c0.24,0.099,0.483,0.175,0.73,0.256 c0.206,0.068,0.409,0.146,0.617,0.201c0.223,0.059,0.45,0.094,0.675,0.138c0.227,0.045,0.454,0.102,0.684,0.131 c0.323,0.042,0.647,0.052,0.975,0.064c0.125,0.004,0.25,0.025,0.375,0.025c0.004,0,0.009,0,0.011,0c0.004,0,0.009,0,0.011,0 c0.125,0,0.25-0.021,0.375-0.025c0.327-0.013,0.654-0.022,0.977-0.064c0.227-0.029,0.45-0.085,0.675-0.129 c0.229-0.045,0.459-0.08,0.684-0.14c0.206-0.054,0.409-0.131,0.612-0.198c0.245-0.081,0.492-0.158,0.734-0.257 c0.173-0.071,0.341-0.16,0.512-0.242c0.267-0.127,0.531-0.256,0.785-0.405c0.057-0.031,0.112-0.053,0.166-0.085 c29.65-17.982,67.328-42.916,95.73-76.406c32.388-38.201,52.803-89.896,62.409-158.041c0.822-5.834-3.239-11.228-9.073-12.051 c-5.84-0.819-11.229,3.24-12.052,9.074c-9.027,64.032-27.852,112.189-57.555,147.222 C316.271,399.858,283.302,422.459,255.999,439.29z"></path> <path style="fill:#000003;" d="M324.842,133.446L213.566,244.72l-26.405-26.409c-6.531-6.529-15.237-10.125-24.517-10.125 c-9.281,0-17.987,3.596-24.521,10.127c-13.513,13.521-13.513,35.517,0.004,49.034l50.997,50.991l0.442,0.434 c0.065,0.064,0.131,0.126,0.196,0.188l0.448,0.417c0.079,0.074,0.159,0.146,0.24,0.217l0.459,0.403 c0.07,0.062,0.142,0.123,0.214,0.182l0.465,0.386c0.052,0.045,0.107,0.087,0.16,0.131l0.473,0.379 c0.087,0.069,0.175,0.138,0.265,0.204l0.485,0.365c0.068,0.051,0.135,0.1,0.204,0.149l0.487,0.347 c0.073,0.052,0.146,0.103,0.219,0.154l0.496,0.334c0.079,0.053,0.158,0.106,0.238,0.157l0.502,0.321 c0.068,0.043,0.135,0.085,0.204,0.126l0.509,0.308c0.068,0.042,0.135,0.082,0.204,0.122l0.512,0.294 c0.1,0.058,0.201,0.113,0.302,0.167l0.521,0.278c0.054,0.029,0.108,0.058,0.164,0.085l0.525,0.269 c0.092,0.048,0.186,0.094,0.279,0.139l0.531,0.252c0.075,0.035,0.15,0.069,0.225,0.105l0.271,0.121 c0.19,0.092,0.383,0.177,0.581,0.258l0.542,0.222c0.05,0.02,0.098,0.039,0.148,0.059l0.544,0.212 c0.081,0.032,0.164,0.064,0.247,0.095l0.553,0.201c0.087,0.031,0.177,0.063,0.267,0.093l0.267,0.089 c0.181,0.067,0.365,0.127,0.553,0.185l0.555,0.169c0.079,0.022,0.158,0.047,0.238,0.068l0.56,0.157 c0.077,0.021,0.155,0.042,0.234,0.062l0.564,0.144c0.075,0.02,0.153,0.038,0.229,0.057l0.564,0.13 c0.079,0.019,0.16,0.036,0.242,0.053l0.564,0.116c0.109,0.022,0.217,0.043,0.325,0.063l0.279,0.048 c0.166,0.034,0.335,0.065,0.507,0.091l0.569,0.087c0.085,0.014,0.171,0.025,0.256,0.036l0.573,0.074 c0.081,0.011,0.164,0.02,0.246,0.029l0.271,0.028c0.179,0.023,0.358,0.044,0.54,0.059l0.577,0.048 c0.109,0.01,0.217,0.017,0.325,0.022l0.271,0.015c0.177,0.014,0.356,0.023,0.535,0.03l0.577,0.017 c0.059,0.002,0.114,0.003,0.173,0.004l0.573,0.009c0.052,0.001,0.102,0.001,0.155,0.001c0.052,0,0.102,0,0.155-0.001l0.577-0.009 c0.059-0.001,0.114-0.002,0.173-0.004l0.579-0.017c0.179-0.006,0.358-0.017,0.535-0.03l0.271-0.015 c0.111-0.006,0.221-0.014,0.332-0.022l0.573-0.048c0.179-0.015,0.356-0.033,0.533-0.058l0.271-0.028 c0.079-0.009,0.158-0.018,0.236-0.028l0.577-0.074c0.09-0.012,0.179-0.023,0.267-0.037l0.569-0.087 c0.175-0.027,0.35-0.059,0.521-0.094l0.273-0.048c0.107-0.018,0.212-0.038,0.317-0.061l0.562-0.116 c0.073-0.015,0.146-0.03,0.219-0.047l0.569-0.13c0.09-0.021,0.179-0.043,0.269-0.066l0.56-0.144 c0.075-0.018,0.148-0.038,0.221-0.06l0.558-0.156c0.077-0.021,0.157-0.044,0.231-0.067l0.556-0.169 c0.175-0.054,0.35-0.111,0.521-0.173l0.275-0.091c0.098-0.033,0.196-0.067,0.293-0.102l0.553-0.201 c0.083-0.031,0.166-0.063,0.247-0.095l0.544-0.212c0.061-0.023,0.121-0.048,0.181-0.073l0.538-0.222 c0.173-0.07,0.343-0.147,0.511-0.226l0.277-0.123c0.09-0.039,0.179-0.081,0.269-0.124l0.529-0.252 c0.07-0.033,0.142-0.067,0.212-0.105l0.525-0.265c0.169-0.085,0.337-0.175,0.5-0.269l0.273-0.146 c0.077-0.042,0.155-0.084,0.229-0.128l0.516-0.294c0.083-0.047,0.164-0.095,0.245-0.145l0.509-0.308 c0.079-0.048,0.158-0.098,0.238-0.148l0.5-0.321c0.057-0.036,0.112-0.073,0.166-0.111l0.5-0.334 c0.085-0.059,0.171-0.116,0.254-0.177l0.487-0.347c0.083-0.06,0.166-0.119,0.247-0.182l0.481-0.365 c0.059-0.045,0.116-0.09,0.175-0.135l0.473-0.374c0.125-0.099,0.247-0.202,0.369-0.305l0.269-0.222 c0.094-0.077,0.188-0.155,0.277-0.237l0.457-0.403c0.061-0.052,0.118-0.106,0.177-0.158l0.45-0.417 c0.067-0.062,0.131-0.123,0.196-0.185l0.442-0.431c0.098-0.094,0.192-0.19,0.284-0.286l135.625-135.62 c13.515-13.522,13.511-35.518-0.009-49.03c-6.529-6.529-15.235-10.125-24.514-10.125 C340.08,123.32,331.374,126.915,324.842,133.446z M358.793,167.392l-135.796,135.79c-0.022,0.023-0.048,0.047-0.07,0.071 l-0.992,0.881c-0.011,0.01-0.022,0.02-0.035,0.029l-1.268,0.899l-1.802,0.934c-0.004,0.002-0.011,0.004-0.015,0.006l-1.194,0.438 c-0.013,0.004-0.025,0.009-0.037,0.013l-1.842,0.431c-0.021,0.003-0.044,0.007-0.067,0.012l-0.923,0.111 c-0.022,0.003-0.046,0.005-0.067,0.007l-0.523,0.031c-0.022,0.001-0.044,0.002-0.067,0.004l-0.529,0.011l-0.335-0.005l-0.19-0.005 c-0.022-0.002-0.046-0.003-0.068-0.004l-0.533-0.031c-0.019-0.002-0.039-0.004-0.061-0.007l-0.918-0.111 c-0.027-0.004-0.052-0.01-0.079-0.014l-1.836-0.429c-0.002-0.001-0.006-0.001-0.009-0.003l-1.047-0.378l-2.004-1.022l-1.844-1.387 l-51.43-51.402c-5.198-5.201-5.198-13.665,0-18.866c2.5-2.5,5.85-3.877,9.434-3.877c3.581,0,6.931,1.377,9.432,3.876l33.946,33.95 c2,2.001,4.713,3.125,7.541,3.125s5.541-1.124,7.544-3.124l118.82-118.817c2.5-2.501,5.85-3.877,9.429-3.877 c3.581,0,6.929,1.376,9.432,3.878C363.988,153.73,363.99,162.192,358.793,167.392z"></path> </g> </g></svg>